<svg xmlns="http://www.w3.org/2000/svg" viewBox="0 0 73.22 100.51"><defs><style>.cls-1{fill:#fff;}</style></defs><g id="Layer_2" data-name="Layer 2"><g id="Layer_1-2" data-name="Layer 1"><path class="cls-1" d="M36.36,100.5c-3.16,0-6.32,0-9.49,0-9.42,0-15.07-4.59-16-13.85-1.7-16.88-3.08-33.8-4.4-50.72-.52-6.59,0-7,6.37-7,16,0,32,.08,48-.07,4.49-.05,6.38,1.4,6,6.1C65.26,52.89,64,70.82,62.45,88.71c-.49,5.62-7.88,11.71-13.6,11.78C44.69,100.54,40.53,100.5,36.36,100.5ZM24.41,62.28c0-6.48,0-13,0-19.42,0-1.79.19-4.07-2.36-4.21s-2.6,2.29-2.61,4q-.14,19.92,0,39.84c0,1.74.1,4.13,2.66,4S24.37,84,24.38,82.2C24.43,75.56,24.4,68.92,24.41,62.28Zm14.83.25c0-6.31.07-12.63,0-18.94,0-2.05.32-5-2.76-4.91-2.71,0-2.48,2.75-2.49,4.65q-.1,19.2,0,38.39c0,2-.06,4.67,2.51,4.7,3,0,2.73-2.86,2.75-4.94C39.3,75.17,39.25,68.85,39.24,62.53Zm14.6.22h.09c0-6.48.07-13,0-19.43,0-1.86.24-4.55-2.52-4.64s-2.61,2.51-2.62,4.45q-.06,19.42,0,38.85c0,2-.14,4.54,2.65,4.47,2.35-.06,2.4-2.51,2.43-4.28C53.9,75.7,53.84,69.22,53.84,62.75Z"/><path class="cls-1" d="M36.57,23.81c-10.64,0-21.28,0-31.92,0-1.6,0-3.57.41-4.42-1.49S1,19.29,2,18C4.5,14.5,7.62,13,12.14,13c16.63.27,33.26.31,49.89,0,5.54-.11,8.3,3.22,10.53,7,2.09,3.53-1.23,3.71-3.56,3.73-9.31.09-18.63.05-27.94.06H36.57Z"/><path class="cls-1" d="M37.54.06c3.65.67,9-2,11.62,3.84.55,1.23,2.27,2.71.41,3.83-1.57.94-2.2-1.05-2.79-2.08-1.33-2.34-3.38-3-5.85-2.94s-5,0-7.45,0C30.33,2.57,27.55,3,26,6.26c-.48,1-1.26,2.34-2.62,1.43s-.23-2.11.22-3.09C24.91,1.68,26.88-.27,30.46,0,32.59.21,34.76.06,37.54.06Z"/></g></g></svg>