<svg width="729" height="516" viewBox="0 0 729 516" fill="none" xmlns="http://www.w3.org/2000/svg">
<g clip-path="url(#clip0_7_198)">
<path opacity="0.1" d="M242.088 515.71C277.55 515.71 306.297 511.091 306.297 505.393C306.297 499.695 277.55 495.076 242.088 495.076C206.626 495.076 177.879 499.695 177.879 505.393C177.879 511.091 206.626 515.71 242.088 515.71Z" fill="#02457A"/>
<path opacity="0.1" d="M591.118 516C635.369 516 671.241 511.381 671.241 505.683C671.241 499.985 635.369 495.366 591.118 495.366C546.868 495.366 510.996 499.985 510.996 505.683C510.996 511.381 546.868 516 591.118 516Z" fill="#02457A"/>
<path opacity="0.1" d="M9.12002 222.949H75.9977V314.139H14.0161C13.8513 315.075 13.6932 316.018 13.5219 316.961H75.9977V390.504C75.8857 390.471 75.7868 390.431 75.6814 390.392C73.9154 389.693 72.1626 388.955 70.4097 388.164L69.2895 387.656C67.5323 386.825 65.7751 385.946 64.0178 385.019C63.405 384.696 62.7922 384.36 62.1859 384.017C52.4306 378.55 43.5684 371.623 35.9067 363.476C35.6826 363.258 35.4718 363.027 35.2477 362.816C34.1802 361.656 33.1325 360.483 32.1177 359.283L30.9974 357.965C29.7981 356.494 28.6384 354.985 27.5115 353.455C27.3468 353.231 27.1887 353.007 27.0173 352.796C22.4346 346.44 18.6295 339.557 15.6832 332.294C15.591 332.077 15.5119 331.84 15.4263 331.635C14.5213 329.306 13.7196 326.955 13.0211 324.581C12.7179 323.586 12.428 322.604 12.1776 321.569C12.0853 321.266 12.0063 320.969 11.9338 320.672C8.19089 306.057 7.74939 290.875 7.74939 275.799C7.74939 274.039 7.74939 272.272 7.74939 270.525C7.74939 264.427 7.82188 258.29 7.92731 252.159C7.92731 250.571 7.9932 248.988 8.02615 247.393C8.11841 243.345 8.2502 239.298 8.42153 235.25C8.46106 234.123 8.51378 233.002 8.57309 231.882C8.57309 231.236 8.60604 230.589 8.67193 229.943C8.83008 227.597 8.96187 225.27 9.12002 222.949Z" fill="#02457A"/>
<path opacity="0.1" d="M75.9977 121.416H39.3135C45.2767 112.078 51.7922 103.106 58.8252 94.5457C64.2748 87.848 70.0275 81.3217 75.9977 75.0327V121.416Z" fill="#02457A"/>
<path opacity="0.1" d="M75.9976 124.237V220.128H9.33081C9.33081 219.851 9.37694 219.567 9.39671 219.29C9.45601 218.532 9.51532 217.774 9.58121 217.023C9.6537 216.139 9.73277 215.249 9.81844 214.386C9.9041 213.522 9.99636 212.467 10.0952 211.512C10.194 210.556 10.2863 209.587 10.3983 208.631C10.5103 207.675 10.6092 206.719 10.7278 205.77C10.8464 204.82 10.9518 203.858 11.0771 202.909C11.1759 202.118 11.2813 201.333 11.3868 200.542C11.5383 199.428 11.6965 198.307 11.8678 197.2C11.8678 197.035 11.9139 196.864 11.9403 196.705C13.143 188.598 14.7818 180.561 16.8495 172.631C19.0139 164.311 21.7778 156.159 25.1194 148.239C28.671 139.954 32.8294 131.943 37.5606 124.27L75.9976 124.237Z" fill="#02457A"/>
<path opacity="0.1" d="M91.9642 222.943V314.139H234.807V222.943H91.9642ZM91.9642 316.954V395.27C92.7813 395.441 93.5919 395.606 94.3958 395.745C95.4897 395.956 96.5769 396.147 97.6906 396.312C97.9014 396.345 98.1189 396.377 98.3495 396.397C98.7845 396.47 99.2325 396.529 99.6675 396.588C100.768 396.74 101.862 396.865 102.962 396.964C103.483 397.017 104.01 397.063 104.537 397.103L105.809 397.201C106.501 397.254 107.186 397.294 107.865 397.314C108.287 397.314 108.708 397.353 109.143 397.366C109.473 397.366 109.802 397.366 110.145 397.366C110.488 397.366 110.975 397.366 111.39 397.366C111.957 397.366 112.524 397.366 113.084 397.366H113.842C114.408 397.366 114.975 397.366 115.535 397.314H115.575C115.963 397.314 116.359 397.314 116.754 397.261C116.864 397.267 116.974 397.267 117.084 397.261C117.413 397.261 117.743 397.261 118.059 397.215H118.29L120.497 397.043C121.222 396.977 121.953 396.892 122.691 396.813L124.194 396.635C130.306 395.778 136.351 394.491 142.282 392.785C155.606 389.067 168.641 383.865 181.958 380.055C199.177 375.144 218.201 372.731 234.84 378.737V316.954H91.9642ZM234.807 121.416V0.00663043C219.168 -0.162871 203.571 1.667 188.396 5.45181C152.226 14.5425 119.772 34.2598 91.9642 59.4422V121.409H99.1337V124.224H91.9642V220.128H234.807V124.231H128.569V121.416H234.807ZM418.28 80.4054C409.332 80.089 400.436 77.2543 392.39 72.8771C377.003 64.505 364.714 51.5776 350.981 40.6675C322.448 17.9441 287.062 4.23225 250.76 0.830659V121.416H454.675L455.182 120.882L418.28 80.4054ZM436.856 77.1093L456.553 98.7318V71.44C449.956 72.2574 444.177 74.2021 436.883 77.083L436.856 77.1093ZM456.553 414.717V316.954H414.584C414.472 316.539 414.359 316.117 414.228 315.695C414.353 316.117 414.458 316.539 414.577 316.954H250.786V387.656C252.341 388.81 253.877 390.023 255.399 391.255C257.04 392.574 258.661 393.965 260.288 395.329L261.929 396.687C262.713 397.347 263.504 398.006 264.302 398.625C265.883 399.909 267.48 401.174 269.092 402.423C269.89 403.082 270.707 403.675 271.517 404.295C284.385 414.137 297.959 423.018 312.129 430.868C315.305 432.626 318.51 434.342 321.743 436.017C323.898 437.117 326.066 438.212 328.24 439.273C331.509 440.868 334.803 442.407 338.125 443.888C368.744 457.638 401.122 467.073 434.333 471.924C441.708 473.014 449.113 473.871 456.546 474.495V414.71H457.205L456.553 414.717ZM250.786 124.231V220.128H456.579V124.231H250.786ZM250.786 222.943V314.139H456.579V222.943H250.786ZM472.552 71.3214V101.764L497.691 74.1692C489.362 72.8244 480.982 71.8641 472.552 71.2884V71.3214ZM472.552 222.976V314.139H672.711V222.943L472.552 222.976ZM671.979 421.955L672.684 316.954H472.552V475.544C485.445 476.085 498.357 475.931 511.233 475.082H511.457C517.607 474.695 523.729 474.133 529.822 473.394H529.961C562.467 469.61 594.253 461.125 624.323 448.206M711.306 237.96C710.555 236.186 709.77 234.426 708.973 232.686C707.484 229.39 705.909 226.186 704.288 222.982H688.671V314.139H728.155C728.136 288.324 721.605 261.955 711.326 237.927L711.306 237.96ZM688.671 316.987V407.301C699.794 396.635 709.191 384.432 715.958 370.483C724.096 353.686 727.819 335.498 728.122 316.974L688.671 316.987ZM688.671 196.402V220.134H702.825C698.543 211.965 693.825 204.032 688.69 196.369L688.671 196.402ZM552.925 89.2127C551.884 88.8171 550.843 88.415 549.795 88.0261C538.745 83.9437 527.453 80.5488 515.984 77.8608L477.514 120.097L476.776 120.882L477.27 121.422H614.189C595.12 108.291 574.562 97.4678 552.945 89.1797L552.925 89.2127ZM618.202 124.264H475.359L472.552 126.834V220.128H497.158H497.197H672.737V174.938C656.858 155.725 638.53 138.678 618.221 124.231L618.202 124.264Z" fill="#02457A"/>
<path opacity="0.1" d="M75.9976 172.604V220.128H9.33081C9.33081 219.851 9.37694 219.567 9.39671 219.29C9.45601 218.532 9.51532 217.774 9.58121 217.023C9.6537 216.139 9.73277 215.249 9.81844 214.386C9.9041 213.522 9.99636 212.467 10.0952 211.512C10.194 210.556 10.2863 209.587 10.3983 208.631C10.5103 207.675 10.6092 206.719 10.7278 205.77C10.8464 204.82 10.9518 203.858 11.0771 202.909C11.1759 202.118 11.2813 201.333 11.3868 200.542C11.5383 199.428 11.6965 198.307 11.8678 197.2C11.8678 197.035 11.9139 196.864 11.9403 196.705C13.143 188.598 14.7818 180.561 16.8495 172.631L75.9976 172.604Z" fill="#02457A"/>
<path opacity="0.1" d="M9.12002 222.949H75.9977V314.139H14.0161C13.8513 315.075 13.6932 316.018 13.5219 316.961H75.9977V390.504C75.8857 390.471 75.7868 390.431 75.6814 390.392C73.9154 389.693 72.1626 388.955 70.4097 388.164L69.2895 387.656C67.5323 386.825 65.7751 385.946 64.0178 385.019C63.405 384.696 62.7922 384.36 62.1859 384.017C52.4306 378.55 43.5684 371.623 35.9067 363.476C35.6826 363.258 35.4718 363.027 35.2477 362.816C34.1802 361.656 33.1325 360.483 32.1177 359.283L30.9974 357.965C29.7981 356.494 28.6384 354.985 27.5115 353.455C27.3468 353.231 27.1887 353.007 27.0173 352.796C22.4346 346.44 18.6295 339.557 15.6832 332.294C15.591 332.077 15.5119 331.84 15.4263 331.635C14.5213 329.306 13.7196 326.955 13.0211 324.581C12.7179 323.586 12.428 322.604 12.1776 321.569C12.0853 321.266 12.0063 320.969 11.9338 320.672C8.19089 306.057 7.74939 290.875 7.74939 275.799C7.74939 274.039 7.74939 272.272 7.74939 270.525C7.74939 264.427 7.82188 258.29 7.92731 252.159C7.92731 250.571 7.9932 248.988 8.02615 247.393C8.11841 243.345 8.2502 239.298 8.42153 235.25C8.46106 234.123 8.51378 233.002 8.57309 231.882C8.57309 231.236 8.60604 230.589 8.67193 229.943C8.83008 227.597 8.96187 225.27 9.12002 222.949Z" fill="#02457A"/>
<path opacity="0.1" d="M142.249 137.962V220.128H91.9642V137.962H99.1337V110.143H128.563V137.962H142.249Z" fill="#02457A"/>
<path opacity="0.1" d="M142.249 222.943H91.9708V314.133H142.249V222.943Z" fill="#02457A"/>
<path opacity="0.1" d="M91.9642 316.961H142.249V392.771C136.318 394.477 130.273 395.761 124.161 396.615L122.659 396.799C121.92 396.885 121.189 396.958 120.464 397.03C119.739 397.103 118.988 397.155 118.257 397.201H118.026C117.71 397.201 117.367 397.241 117.057 397.248H116.721C116.326 397.248 115.931 397.287 115.535 397.3C114.975 397.333 114.415 397.34 113.842 397.346C113.598 397.346 113.367 397.346 113.123 397.346C112.557 397.346 111.997 397.346 111.43 397.346H110.184C109.848 397.346 109.525 397.346 109.176 397.346L107.904 397.3C107.245 397.3 106.534 397.228 105.848 397.182L104.583 397.089L103.008 396.944C101.901 396.845 100.801 396.72 99.7136 396.569L98.3957 396.384L97.7367 396.292C96.6362 396.12 95.549 395.936 94.4419 395.725C93.6314 395.586 92.8275 395.415 92.0104 395.25L91.9642 316.961Z" fill="#02457A"/>
<path opacity="0.1" d="M456.579 128.258H415.117V220.121H456.579V128.258Z" fill="#02457A"/>
<path opacity="0.1" d="M456.585 222.943V314.139H250.786V274.804H360.404V298.008H415.117V222.943H456.585Z" fill="#02457A"/>
<path opacity="0.1" d="M457.238 414.737H456.579V474.561C449.155 473.933 441.752 473.078 434.372 471.997C401.145 467.13 368.754 457.675 338.125 443.901C329.281 439.919 320.618 435.573 312.135 430.861C297.965 423.008 284.39 414.126 271.517 404.288C268.284 401.809 265.092 399.274 261.942 396.681C259.761 394.881 257.593 393.035 255.399 391.242C253.877 390.009 252.341 388.796 250.786 387.636V316.961H414.57C414.458 316.539 414.346 316.117 414.228 315.702C414.353 316.117 414.471 316.539 414.583 316.961H456.579V414.697C456.803 414.704 457.02 414.724 457.238 414.737Z" fill="#02457A"/>
<path opacity="0.1" d="M564.714 121.416H537.697V113.017H549.808V87.9996C550.858 88.382 551.904 88.7753 552.945 89.1796V113.017H564.714V121.416Z" fill="#02457A"/>
<path opacity="0.1" d="M629.806 220.128H497.171C497.171 220.128 497.171 220.128 497.217 220.161L497.158 220.128H472.552V128.265H479.524V196.165H511.385V155.952H537.703V124.237H564.721V155.979H591.039V196.191H629.806V220.128Z" fill="#02457A"/>
<path opacity="0.1" d="M472.552 222.943V314.139H629.806V222.943H472.552ZM672.493 421.487L672.711 349.302H629.806V317H472.552V475.543C485.445 476.085 498.357 475.931 511.233 475.082H511.457C517.607 474.695 523.729 474.133 529.822 473.394H529.961C562.467 469.61 594.253 461.125 624.323 448.206" fill="#02457A"/>
<path opacity="0.1" d="M691.465 316.961H728.149C727.826 335.478 724.109 353.666 715.978 370.463C709.21 384.419 699.807 396.621 688.697 407.281V349.269H691.465V316.961Z" fill="#02457A"/>
<path opacity="0.1" d="M728.169 314.139H691.465V237.927H711.326C721.605 261.955 728.136 288.324 728.169 314.139Z" fill="#02457A"/>
<path opacity="0.1" d="M456.586 153.797H434.372V182.598H456.586V153.797Z" fill="#02457A"/>
<path opacity="0.1" d="M456.586 213.496H434.372V220.128H456.586V213.496Z" fill="#02457A"/>
<path opacity="0.1" d="M456.586 222.943H434.372V242.291H456.586V222.943Z" fill="#02457A"/>
<path opacity="0.1" d="M456.586 273.195H434.372V301.996H456.586V273.195Z" fill="#02457A"/>
<path opacity="0.1" d="M456.586 332.894H434.372V361.696H456.586V332.894Z" fill="#02457A"/>
<path opacity="0.1" d="M456.579 414.697C456.803 414.697 457.02 414.697 457.238 414.737H456.579V421.428H434.372V392.594H456.579V414.697Z" fill="#02457A"/>
<path opacity="0.1" d="M456.579 452.28V474.528C449.155 473.9 441.752 473.045 434.372 471.964V452.28H456.579Z" fill="#02457A"/>
<path opacity="0.1" d="M345.986 312.023H250.786V314.139H345.986V312.023Z" fill="#02457A"/>
<path opacity="0.1" d="M345.986 316.954H250.786V325.063H345.986V316.954Z" fill="#02457A"/>
<path opacity="0.1" d="M345.986 351.643H250.786V364.682H345.986V351.643Z" fill="#02457A"/>
<path opacity="0.1" d="M345.979 391.262V404.301H271.517C268.284 401.831 265.09 399.296 261.936 396.694C259.755 394.894 257.593 393.048 255.392 391.262H345.979Z" fill="#02457A"/>
<path opacity="0.1" d="M345.979 430.875V443.901H338.118C329.284 439.915 320.623 435.566 312.135 430.855L345.979 430.875Z" fill="#02457A"/>
<path opacity="0.1" d="M529.98 231.783H511.24V250.531H529.98V231.783Z" fill="#02457A"/>
<path opacity="0.1" d="M124.207 144.429H105.466V163.177H124.207V144.429Z" fill="#02457A"/>
<path opacity="0.1" d="M124.207 187.977H105.466V206.726H124.207V187.977Z" fill="#02457A"/>
<path opacity="0.1" d="M124.207 231.526H105.466V250.274H124.207V231.526Z" fill="#02457A"/>
<path opacity="0.1" d="M124.207 275.067H105.466V293.816H124.207V275.067Z" fill="#02457A"/>
<path opacity="0.1" d="M124.207 318.616H105.466V337.364H124.207V318.616Z" fill="#02457A"/>
<path opacity="0.1" d="M124.207 362.164H105.466V380.912H124.207V362.164Z" fill="#02457A"/>
<path opacity="0.1" d="M601.523 231.783H582.783V250.531H601.523V231.783Z" fill="#02457A"/>
<path opacity="0.1" d="M529.98 278.027H511.24V296.776H529.98V278.027Z" fill="#02457A"/>
<path opacity="0.1" d="M601.523 278.027H582.783V296.776H601.523V278.027Z" fill="#02457A"/>
<path opacity="0.1" d="M529.98 324.265H511.24V343.013H529.98V324.265Z" fill="#02457A"/>
<path opacity="0.1" d="M601.523 324.265H582.783V343.013H601.523V324.265Z" fill="#02457A"/>
<path opacity="0.1" d="M529.98 370.51H511.24V389.258H529.98V370.51Z" fill="#02457A"/>
<path opacity="0.1" d="M601.523 370.51H582.783V389.258H601.523V370.51Z" fill="#02457A"/>
<path opacity="0.1" d="M529.98 416.754H511.24V435.502H529.98V416.754Z" fill="#02457A"/>
<path opacity="0.1" d="M601.523 416.754H582.783V435.502H601.523V416.754Z" fill="#02457A"/>
<path opacity="0.1" d="M511.24 475.082V462.992H529.974V473.362L511.24 475.082Z" fill="#02457A"/>
<path opacity="0.1" d="M11.8612 196.692V207.418H75.9976V196.692H11.8612ZM18.2531 206.745H13.021V197.351H18.2926L18.2531 206.745ZM24.6384 206.745H19.3667V197.351H24.6384V206.745ZM31.0105 206.745H25.7389V197.351H31.0105V206.745ZM37.3958 206.745H32.1308V197.351H37.4024L37.3958 206.745ZM43.7746 206.745H38.5029V197.351H43.7746V206.745ZM50.1599 206.745H44.8882V197.351H50.1599V206.745ZM56.5452 206.745H51.2735V197.351H56.5452V206.745ZM62.9239 206.745H57.6522V197.351H62.9239V206.745ZM69.3026 206.745H64.0309V197.351H69.3026V206.745ZM75.6813 206.745H70.4096V197.351H75.6813V206.745Z" fill="#02457A"/>
<path opacity="0.1" d="M11.8612 227.9V238.625H75.9976V227.9H11.8612ZM18.2531 237.946H13.021V228.579H18.2926L18.2531 237.946ZM24.6384 237.946H19.3667V228.579H24.6384V237.946ZM31.0105 237.946H25.7389V228.579H31.0105V237.946ZM37.3958 237.946H32.1308V228.579H37.4024L37.3958 237.946ZM43.7746 237.946H38.5029V228.579H43.7746V237.946ZM50.1599 237.946H44.8882V228.579H50.1599V237.946ZM56.5452 237.946H51.2735V228.579H56.5452V237.946ZM62.9239 237.946H57.6522V228.579H62.9239V237.946ZM69.3026 237.946H64.0309V228.579H69.3026V237.946ZM75.6813 237.946H70.4096V228.579H75.6813V237.946Z" fill="#02457A"/>
<path opacity="0.1" d="M11.8612 259.121V269.866H75.9976V259.121H11.8612ZM18.2531 269.167H13.021V259.793H18.2926L18.2531 269.167ZM24.6384 269.167H19.3667V259.793H24.6384V269.167ZM31.0105 269.167H25.7389V259.793H31.0105V269.167ZM37.3958 269.167H32.1308V259.793H37.4024L37.3958 269.167ZM43.7746 269.167H38.5029V259.793H43.7746V269.167ZM50.1599 269.167H44.8882V259.793H50.1599V269.167ZM56.5452 269.167H51.2735V259.793H56.5452V269.167ZM62.9239 269.167H57.6522V259.793H62.9239V269.167ZM69.3026 269.167H64.0309V259.793H69.3026V269.167ZM75.6813 269.167H70.4096V259.793H75.6813V269.167Z" fill="#02457A"/>
<path opacity="0.1" d="M11.8612 290.341V301.054H75.9976V290.341H11.8612ZM18.2531 300.388H13.021V291.007H18.2926L18.2531 300.388ZM24.6384 300.388H19.3667V291.007H24.6384V300.388ZM31.0105 300.388H25.7389V291.007H31.0105V300.388ZM37.3958 300.388H32.1308V291.007H37.4024L37.3958 300.388ZM43.7746 300.388H38.5029V291.007H43.7746V300.388ZM50.1599 300.388H44.8882V291.007H50.1599V300.388ZM56.5452 300.388H51.2735V291.007H56.5452V300.388ZM62.9239 300.388H57.6522V291.007H62.9239V300.388ZM69.3026 300.388H64.0309V291.007H69.3026V300.388ZM75.6813 300.388H70.4096V291.007H75.6813V300.388Z" fill="#02457A"/>
<path opacity="0.1" d="M12.1381 321.556C12.3951 322.564 12.685 323.573 12.9881 324.568V322.228H18.2598V331.602H15.4394C15.5251 331.82 15.6108 332.057 15.6964 332.261H75.9977V321.556H12.1381ZM24.6583 331.602H19.3866V322.228H24.6583V331.602ZM31.0304 331.602H25.7587V322.228H31.0304V331.602ZM37.4157 331.602H32.1308V322.228H37.4025L37.4157 331.602ZM43.7944 331.602H38.5227V322.228H43.7944V331.602ZM50.1797 331.602H44.908V322.228H50.1797V331.602ZM56.565 331.602H51.2934V322.228H56.565V331.602ZM62.9437 331.602H57.6721V322.228H62.9437V331.602ZM69.3224 331.602H64.0508V322.228H69.3224V331.602ZM75.7012 331.602H70.4295V322.228H75.7012V331.602Z" fill="#02457A"/>
<path opacity="0.1" d="M27.0305 352.776C27.1953 352.987 27.3534 353.225 27.5247 353.436H31.0106V357.938C31.3862 358.386 31.7552 358.835 32.1374 359.257V353.409H37.4091V362.816H35.2741C35.4849 363.034 35.6892 363.265 35.933 363.476H76.0175V352.776H27.0305ZM43.7746 362.816H38.503V353.449H43.7746V362.816ZM50.16 362.816H44.8883V353.449H50.16V362.816ZM56.5453 362.816H51.2736V353.449H56.5453V362.816ZM62.924 362.816H57.6523V353.449H62.924V362.816ZM69.3027 362.816H64.031V353.449H69.3027V362.816ZM75.6814 362.816H70.4097V353.449H75.6814V362.816Z" fill="#02457A"/>
<path opacity="0.1" d="M62.2123 383.991C62.8119 384.333 63.4248 384.65 64.0442 384.993V384.663H69.3158V387.63L70.4361 388.15V384.663H75.7078V390.365C75.8088 390.416 75.9148 390.455 76.024 390.484V383.991H62.2123Z" fill="#02457A"/>
<path opacity="0.1" d="M414.228 315.695C414.353 316.117 414.458 316.539 414.577 316.954C414.471 316.539 414.359 316.117 414.228 315.695ZM99.16 121.396V124.211H128.596V121.396H99.16ZM414.228 315.695C414.353 316.117 414.458 316.539 414.577 316.954C414.471 316.539 414.359 316.117 414.228 315.695ZM414.228 315.695C414.353 316.117 414.458 316.539 414.577 316.954C414.471 316.539 414.359 316.117 414.228 315.695Z" fill="#02457A"/>
<path d="M304.175 250.287C304.175 250.287 301.579 249.925 301.579 246.141C301.579 242.357 299.72 235.29 299.72 235.29C299.72 235.257 298.113 222.982 295.892 221.031C293.671 219.079 290.818 207.622 290.818 207.622C290.818 207.622 290.33 201.406 289.335 200.067C288.34 198.729 286.996 195.453 285.013 190.779C283.029 186.105 274.759 182.868 274.759 182.868C274.759 182.868 259.807 174.193 255.57 171.365C255.185 171.133 254.825 170.861 254.496 170.554C253.758 169.585 250.542 169.565 250.542 169.565C250.206 167.443 249.883 165.003 249.778 162.795C249.778 162.558 249.778 162.32 249.745 162.083C254.47 159.289 258.028 154.884 259.768 149.676C259.847 149.426 259.913 149.162 259.985 148.912C260.268 148.818 260.529 148.667 260.75 148.467C260.971 148.268 261.149 148.024 261.27 147.752C261.652 146.901 261.659 145.906 262.134 145.115C262.687 144.179 263.741 143.678 264.572 142.972C266.667 141.192 267.207 138.193 267.109 135.464C267.043 133.255 266.687 131.027 266.825 128.832L266.865 128.278C266.904 127.949 266.951 127.619 267.01 127.302C267.333 125.668 268.038 124.125 268.433 122.503C268.829 120.882 268.868 119.056 267.946 117.658C266.595 115.608 263.781 115.199 261.31 114.988C258.509 114.751 256.005 115.061 254.213 112.734C253.374 111.517 252.43 110.377 251.393 109.325C251.023 108.983 247.439 106.794 247.439 106.649C243.94 105.028 239.974 104.724 236.269 105.792C234.411 106.333 232.658 107.216 230.774 107.658C226.708 108.62 222.029 107.579 218.576 109.906C216.652 111.224 215.499 113.32 214.418 115.364C213.54 117.047 212.648 118.728 211.743 120.407C210.287 123.169 208.804 125.977 208.191 129.036C208.062 129.702 207.983 130.376 207.954 131.053V131.086C207.954 131.33 207.954 131.574 207.954 131.818V132.128C207.954 132.359 207.954 132.583 207.994 132.787C208.033 132.992 208.026 133.057 208.046 133.196C208.066 133.334 208.099 133.644 208.139 133.855C208.178 134.066 208.257 134.435 208.336 134.725C208.369 134.851 208.415 134.969 208.455 135.088C208.521 135.312 208.6 135.53 208.685 135.747C208.732 135.859 208.778 135.978 208.83 136.09C208.929 136.321 209.048 136.545 209.166 136.749C209.219 136.841 209.259 136.927 209.311 137.013C209.495 137.319 209.698 137.614 209.918 137.896C211.328 139.656 213.404 140.777 214.939 142.425C214.939 142.491 214.939 142.557 214.939 142.616C214.939 142.801 214.939 142.979 214.939 143.163C215.02 146.839 215.998 150.439 217.788 153.65C219.577 156.861 222.123 159.586 225.206 161.589C225.206 161.839 225.238 162.096 225.252 162.347C225.38 164.304 225.356 166.267 225.179 168.22C224.911 167.904 224.575 167.652 224.196 167.484C223.818 167.315 223.406 167.233 222.991 167.245C222.708 167.231 222.425 167.255 222.148 167.317L222.089 167.271V167.33C220.639 167.686 218.853 169.196 217.146 173.488C217.146 173.488 211.954 179.342 208 179.098C204.046 178.854 194.037 185.189 194.037 185.189C194.037 185.189 184.271 191.531 182.176 197.991C181.004 201.654 179.6 205.239 177.971 208.723L165.899 233.609L163.672 253.352C163.672 253.352 164.904 262.133 164.66 263.472C164.417 264.81 169.728 276.88 169.728 276.88C169.728 276.88 187.276 307.725 194.445 309.307L194.959 308.945C195.266 309.105 195.591 309.227 195.928 309.307L197.404 308.266C197.493 309.427 197.455 310.594 197.292 311.746C196.304 314.792 197.661 334.668 199.388 338.564C201.114 342.46 200.501 393.543 200.501 393.543L200.257 398.052C200.257 398.052 200.257 398.197 200.317 398.447L200.257 399.515L200.435 399.608C200.62 401.038 200.56 402.489 200.257 403.899C199.638 405.877 199.388 411.467 199.388 411.467C199.388 411.467 194.452 443.031 196.791 449.372C199.131 455.714 201.121 462.662 201.121 462.662C201.121 462.662 203.592 470.573 201.239 471.924C198.887 473.276 192.198 475.544 193.576 478.84C194.828 481.885 199.579 490.046 200.284 491.24L200.224 491.866L199.256 502.367C199.413 503.754 199.788 505.107 200.369 506.375C201.43 508.663 203.493 511.036 207.414 510.779C208.073 510.733 208.837 510.654 209.575 510.555C216.751 509.592 225.588 506.389 225.588 506.389C225.129 506.097 224.708 505.749 224.336 505.354C223.983 505.012 223.703 504.602 223.514 504.148C223.325 503.695 223.23 503.208 223.235 502.717C223.341 500.805 219.763 491.694 218.873 489.453C218.735 489.13 218.662 488.946 218.662 488.946C218.662 488.946 226.82 480.415 225.463 472.854C225.463 472.854 216.435 467.58 219.407 464.686C222.379 461.792 227.69 453.479 227.69 453.479C227.69 453.479 227.934 422.397 227.69 417.756C227.435 414.535 227.588 411.295 228.144 408.112C228.243 407.63 228.362 407.162 228.487 406.701C232.597 407.315 236.746 407.63 240.902 407.644C242.418 407.644 243.959 407.644 245.515 407.551C245.515 407.991 245.534 408.465 245.574 408.975C245.917 416.675 246.556 430.176 247.076 435.192C247.814 442.385 251.893 461.766 251.893 461.766C251.893 461.766 244.111 466.763 253.251 479.077C253.251 479.077 253.251 483.54 252.645 484.186C251.997 486.298 251.476 488.446 251.083 490.62C250.701 492.94 250.542 495.287 251.162 496.507C252.645 499.421 261.54 499.183 261.54 499.183L261.758 499.144C263.437 498.97 265.135 499.132 266.751 499.619C268.368 500.107 269.871 500.911 271.174 501.985C274.555 504.701 287.385 503.508 294.33 502.644C297.052 502.301 298.87 501.985 298.87 501.985C298.959 501.677 298.99 501.355 298.963 501.036C298.89 499.328 297.553 495.584 288.485 492.242C288.485 492.242 279.958 486.506 280.077 481.509H279.899H278.911C279.629 481.47 280.09 481.509 280.09 481.509C280.09 481.509 276.749 469.314 278.113 468.325C279.477 467.336 275.392 453.822 275.392 453.822C275.392 453.822 273.052 431.145 272.927 429.556C272.933 428.193 273.139 426.838 273.54 425.535L272.927 413.102C272.927 413.102 272.809 408.969 272.927 407.624C272.907 406.456 272.813 405.292 272.644 404.136C272.585 403.675 272.525 403.194 272.459 402.719C275.655 401.908 277.731 401.157 277.731 401.157L277.362 357.879C280.077 352.605 280.578 341.036 280.565 332.828C280.565 327.555 280.327 323.652 280.327 323.652L284.037 317.594C284.037 317.594 284.894 310.342 283.536 308.754C282.937 308.035 283.207 307.29 283.701 306.677C283.958 306.473 284.229 306.288 284.512 306.123C284.512 306.123 284.472 306.064 284.426 305.978C284.685 305.762 284.961 305.566 285.25 305.392C285.25 305.392 283.932 303.348 285.111 302.484C286.218 303.236 287.207 303.803 287.958 304.264C287.905 304.745 287.853 305.022 287.853 305.022L288.169 304.363C288.894 304.772 289.335 305.022 289.335 305.022C289.335 305.022 295.147 293.44 295.022 291.732C294.897 290.025 298.976 282.833 298.976 282.833C298.976 282.833 299.47 279.056 301.697 277.473C303.925 275.891 303.424 264.427 303.424 264.427C303.424 264.427 304.043 258.455 305.526 256.016C307.009 253.577 304.175 250.287 304.175 250.287ZM192.969 245.204L193.081 247.967C192.422 246.905 191.948 246.141 191.948 246.141L192.969 245.204Z" fill="url(#paint0_linear_7_198)"/>
<path d="M289.652 300.019L288.228 306.084C288.228 306.084 276.828 300.263 274.772 292.866C272.716 285.47 278.212 282.661 278.212 282.661L288.835 287.164L289.652 300.019Z" fill="white"/>
<path opacity="0.1" d="M289.652 300.019L288.228 306.084C288.228 306.084 276.828 300.263 274.772 292.866C272.716 285.47 278.212 282.661 278.212 282.661L288.835 287.164L289.652 300.019Z" fill="black"/>
<path d="M225.673 506.428C225.673 506.428 215.13 510.304 207.882 510.792C204.033 511.049 202.01 508.689 200.969 506.415C200.4 505.151 200.033 503.805 199.882 502.427L200.824 491.978L201.325 486.414L216.725 482.413L218.906 489.084L219.11 489.592C219.987 491.82 223.499 500.884 223.393 502.776C223.389 503.26 223.483 503.741 223.668 504.188C223.854 504.636 224.128 505.041 224.474 505.38C224.828 505.779 225.231 506.131 225.673 506.428Z" fill="white"/>
<path d="M297.691 501.115C297.717 501.432 297.686 501.751 297.599 502.057C297.599 502.057 275.049 505.822 270.436 502.057C269.136 500.958 267.62 500.142 265.986 499.663C264.352 499.184 262.636 499.052 260.947 499.276C260.947 499.276 252.223 499.513 250.767 496.639C250.16 495.432 250.318 493.092 250.694 490.785C251.077 488.623 251.588 486.485 252.223 484.384L252.572 484.107L254.648 482.439L278.95 481.72H279.135C279.016 486.691 287.385 492.393 287.385 492.393C296.274 495.689 297.586 499.414 297.691 501.115Z" fill="white"/>
<path opacity="0.1" d="M297.691 501.115C297.714 501.432 297.681 501.752 297.592 502.057C297.592 502.057 275.049 505.822 270.436 502.057C269.137 500.959 267.622 500.144 265.989 499.665C264.356 499.186 262.641 499.053 260.954 499.276C260.954 499.276 252.223 499.513 250.773 496.639C250.167 495.426 250.318 493.092 250.694 490.785C254.055 491.121 259.359 491.958 261.442 493.956C264.591 496.995 269.929 500.027 273.204 500.264C275.767 500.429 291.101 500.917 297.691 501.115Z" fill="black"/>
<path opacity="0.1" d="M225.673 506.428C225.673 506.428 215.13 510.304 207.882 510.792C204.033 511.049 202.01 508.689 200.976 506.408C203.658 507.311 207.381 508.261 209.338 507.391C211.657 506.362 219.881 505.696 224.494 505.413C224.845 505.797 225.241 506.138 225.673 506.428Z" fill="black"/>
<path d="M241.317 194.055C232.619 190.674 221.43 179.5 224.224 174.279C224.844 172.961 225.213 171.539 225.311 170.086C225.491 168.113 225.517 166.13 225.39 164.153C225.194 160.916 224.805 157.693 224.224 154.502C224.224 154.502 251.379 155.115 249.798 159.117C249.337 160.29 249.264 162.327 249.389 164.608C249.514 166.889 249.844 169.466 250.187 171.648C250.661 174.641 251.135 176.922 251.135 176.922C251.135 176.922 249.475 179.249 248.5 179.375C247.524 179.5 253.798 198.874 241.317 194.055Z" fill="#CF6F80"/>
<path opacity="0.1" d="M219.09 489.592L218.886 489.816C210.768 479.993 200.949 492.235 200.949 492.235L200.804 491.978L201.305 486.414L216.705 482.413L218.886 489.084L219.09 489.592Z" fill="black"/>
<path opacity="0.1" d="M279.141 482.413C279.141 482.413 273.211 482.287 270.048 485.082C266.885 487.878 251.597 485.689 252.256 485.082C252.451 484.782 252.569 484.438 252.598 484.08L254.674 482.413L278.977 481.694C279.069 482.136 279.141 482.413 279.141 482.413Z" fill="black"/>
<path d="M229.192 405.277C228.751 406.369 228.415 407.502 228.191 408.659C227.641 411.827 227.488 415.051 227.736 418.257C227.98 422.872 227.736 453.796 227.736 453.796C227.736 453.796 222.524 462.043 219.618 464.95C216.712 467.857 225.548 473.078 225.548 473.078C226.866 480.593 218.88 489.084 218.88 489.084C210.761 479.262 200.943 491.51 200.943 491.51C200.943 491.51 195.605 482.281 194.274 478.985C192.943 475.689 199.486 473.408 201.786 472.069C204.086 470.731 201.674 462.84 201.674 462.84C201.674 462.84 199.73 455.925 197.424 449.616C195.118 443.308 199.967 411.902 199.967 411.902C199.967 411.902 200.218 406.325 200.818 404.38C201.12 402.977 201.18 401.532 200.995 400.109C200.956 399.627 200.91 399.225 200.877 398.955C200.844 398.685 200.818 398.559 200.818 398.559L200.91 398.401L204.205 392.257C204.205 392.257 230.774 401.407 229.192 405.277Z" fill="#005DAA"/>
<path d="M279.141 481.687C279.141 481.687 273.211 481.562 270.048 484.324C266.885 487.087 251.597 484.931 252.256 484.324C252.915 483.718 252.862 479.229 252.862 479.229C243.894 466.98 251.544 462.01 251.544 462.01C251.544 462.01 247.538 442.727 246.813 435.575C246.305 430.578 245.679 417.15 245.343 409.483C245.198 406.187 245.113 403.919 245.113 403.919L252.44 402.442L253.383 402.251L271.056 398.705C271.056 398.705 271.543 402.001 271.873 404.697C272.037 405.848 272.13 407.008 272.15 408.171C272.031 409.489 272.15 413.616 272.15 413.616L272.749 425.99C272.358 427.288 272.156 428.635 272.15 429.991C272.268 431.567 274.568 454.125 274.568 454.125C274.568 454.125 278.568 467.587 277.204 468.556C275.84 469.525 279.141 481.687 279.141 481.687Z" fill="#005DAA"/>
<path opacity="0.1" d="M249.798 159.117C249.337 160.29 249.264 162.327 249.389 164.608C245.752 166.799 241.57 167.92 237.325 167.84C233.08 167.761 228.943 166.485 225.39 164.16C225.194 160.92 224.805 157.695 224.224 154.502C224.224 154.502 251.379 155.102 249.798 159.117Z" fill="black"/>
<path d="M260.295 144.548C260.3 146.923 259.927 149.284 259.188 151.542C257.537 156.601 254.152 160.913 249.63 163.716C245.109 166.519 239.742 167.633 234.479 166.86C229.216 166.088 224.396 163.479 220.869 159.495C217.343 155.511 215.338 150.408 215.209 145.088C215.209 144.904 215.209 144.732 215.209 144.548C215.158 141.553 215.703 138.579 216.813 135.797C217.923 133.016 219.576 130.483 221.675 128.348C223.773 126.212 226.276 124.516 229.037 123.358C231.798 122.2 234.762 121.604 237.755 121.604C240.749 121.604 243.713 122.2 246.474 123.358C249.235 124.516 251.737 126.212 253.836 128.348C255.935 130.483 257.587 133.016 258.697 135.797C259.807 138.579 260.353 141.553 260.302 144.548H260.295Z" fill="#CF6F80"/>
<path opacity="0.1" d="M241.317 194.055C232.619 190.674 221.43 179.5 224.224 174.279C224.844 172.961 225.213 171.539 225.311 170.086L237.218 179.876L244.585 185.921L250.187 171.655C250.661 174.648 251.135 176.929 251.135 176.929C251.135 176.929 249.475 179.256 248.5 179.381C247.524 179.506 253.798 198.874 241.317 194.055Z" fill="black"/>
<path d="M272.11 237.32L262.166 404.433L249.198 405.283L215.618 308.384L221.127 193.343L222.286 169.038L237.218 181.306L244.592 187.351L250.358 172.67L261.079 182.018L272.11 237.32Z" fill="#005DAA"/>
<path opacity="0.1" d="M229.192 405.277C228.751 406.369 228.415 407.502 228.191 408.659C218.754 407.201 209.59 404.337 201.002 400.161L200.824 400.069L200.883 399.008L200.916 398.454L204.211 392.31C204.211 392.31 230.774 401.407 229.192 405.277Z" fill="black"/>
<path opacity="0.1" d="M252.592 408.685C250.18 409.096 247.747 409.373 245.304 409.516C245.159 406.22 245.073 403.952 245.073 403.952L252.401 402.475L252.592 408.685Z" fill="black"/>
<path opacity="0.1" d="M271.833 404.73C267.148 405.949 259.913 407.321 253.435 406.464L253.343 402.284L271.016 398.737C271.016 398.737 271.504 402.001 271.833 404.73Z" fill="black"/>
<path opacity="0.1" d="M253.317 407.228C226.299 411.843 201.556 398.612 201.556 398.612L201.793 394.13C201.793 394.13 202.406 343.31 200.706 339.414C199.005 335.518 197.681 315.761 198.643 312.729C199.605 309.696 195.131 264.223 195.131 264.223L194.406 245.765L167.876 235.013L179.737 210.279C181.34 206.811 182.717 203.244 183.863 199.6C185.925 193.179 195.5 186.87 195.5 186.87C195.5 186.87 205.318 180.568 209.199 180.805C213.081 181.042 218.168 175.228 218.168 175.228C221.924 165.65 225.324 169.987 225.324 169.987C225.324 170.442 225.324 169.987 225.14 171.405C223.822 181.919 246.45 215.144 246.773 215.731L248.928 268.244L251.109 334.701L253.317 407.228Z" fill="black"/>
<path d="M252.592 407.228C225.575 411.843 200.824 398.612 200.824 398.612L201.068 394.13C201.068 394.13 201.681 343.31 199.974 339.414C198.267 335.518 196.949 315.761 197.918 312.729C198.887 309.696 194.406 264.223 194.406 264.223L193.674 245.765L167.132 234.973L178.993 210.239C180.591 206.77 181.969 203.203 183.118 199.56C185.174 193.139 194.755 186.83 194.755 186.83C194.755 186.83 204.574 180.528 208.448 180.766C212.323 181.003 217.417 175.188 217.417 175.188C221.179 165.61 225.324 169.948 225.324 169.948C225.324 170.403 224.929 170.607 225.14 171.365C228.039 181.563 245.726 215.104 246.048 215.691L248.23 268.205L250.411 334.661L252.592 407.228Z" fill="white"/>
<path opacity="0.1" d="M245.31 217.187C242.404 215.975 227.011 198.393 227.011 198.393V194.392C226.451 193.073 223.123 193.877 220.422 194.8L221.581 170.495L222.899 171.589C225.785 181.781 244.974 216.601 245.31 217.187Z" fill="black"/>
<path d="M246.042 215.731C243.129 214.518 227.736 196.936 227.736 196.936V192.935C227.176 191.616 223.848 192.42 221.146 193.343L222.313 169.038L223.631 170.132C226.523 180.324 245.719 215.15 246.042 215.731Z" fill="white"/>
<path opacity="0.1" d="M201.556 303.414C201.918 303.414 220.342 301.476 220.342 301.476C220.342 301.476 231.499 323.421 230.767 328.761C230.036 334.101 228.711 338.827 224.224 337.99C219.736 337.153 200.073 338.649 200.073 338.649L201.556 303.414Z" fill="black"/>
<path d="M200.824 301.957C201.187 301.957 219.611 300.019 219.611 300.019C219.611 300.019 230.761 321.971 230.036 327.304C229.311 332.637 227.973 337.37 223.492 336.533C219.011 335.696 199.341 337.192 199.341 337.192L200.824 301.957Z" fill="white"/>
<path d="M214.708 291.653C214.708 291.653 231.617 300.744 231.98 303.519C232.342 306.295 223.374 302.306 221.436 301.825C220.161 301.518 218.863 301.315 217.555 301.219L204.633 301.568L214.708 291.653Z" fill="#CF6F80"/>
<path opacity="0.1" d="M240.592 218.321C241.575 218.321 242.371 217.525 242.371 216.542C242.371 215.558 241.575 214.762 240.592 214.762C239.61 214.762 238.813 215.558 238.813 216.542C238.813 217.525 239.61 218.321 240.592 218.321Z" fill="black"/>
<path d="M240.592 217.596C241.575 217.596 242.371 216.799 242.371 215.816C242.371 214.833 241.575 214.036 240.592 214.036C239.61 214.036 238.813 214.833 238.813 215.816C238.813 216.799 239.61 217.596 240.592 217.596Z" fill="#3F3D56"/>
<path opacity="0.1" d="M243.867 295.371C244.85 295.371 245.646 294.574 245.646 293.591C245.646 292.608 244.85 291.812 243.867 291.812C242.885 291.812 242.088 292.608 242.088 293.591C242.088 294.574 242.885 295.371 243.867 295.371Z" fill="black"/>
<path d="M243.867 294.64C244.85 294.64 245.646 293.843 245.646 292.86C245.646 291.877 244.85 291.08 243.867 291.08C242.885 291.08 242.088 291.877 242.088 292.86C242.088 293.843 242.885 294.64 243.867 294.64Z" fill="#3F3D56"/>
<path opacity="0.1" d="M242.365 256.846C243.347 256.846 244.144 256.05 244.144 255.067C244.144 254.084 243.347 253.287 242.365 253.287C241.382 253.287 240.586 254.084 240.586 255.067C240.586 256.05 241.382 256.846 242.365 256.846Z" fill="black"/>
<path d="M242.365 256.121C243.347 256.121 244.144 255.324 244.144 254.341C244.144 253.358 243.347 252.561 242.365 252.561C241.382 252.561 240.586 253.358 240.586 254.341C240.586 255.324 241.382 256.121 242.365 256.121Z" fill="#3F3D56"/>
<path d="M283.378 300.85C283.378 300.85 284.591 302.669 283.378 303.519C282.166 304.37 283.497 306.427 283.497 306.427C283.497 306.427 280.472 308.2 281.803 309.795C283.135 311.39 282.291 318.596 282.291 318.596L278.654 324.621C278.654 324.621 278.871 328.504 278.884 333.751C278.884 341.939 278.403 353.449 275.741 358.696L276.11 401.75C276.11 401.75 263.372 406.404 252.71 404.987L251.129 335.9C251.129 335.9 253.435 296.723 254.285 289.208C254.783 285.306 254.985 281.373 254.892 277.441C254.892 277.441 254.529 265.68 253.31 260.222C253.31 260.222 251.992 236.575 251.86 230.029C251.801 226.898 251.966 217.761 252.15 209.073C252.355 199.573 252.585 190.614 252.585 190.614L250.18 171.576C250.18 171.576 252.585 171.332 253.31 172.301C253.635 172.605 253.988 172.876 254.364 173.112C258.516 175.92 273.184 184.556 273.184 184.556C273.184 184.556 281.303 187.786 283.247 192.414C285.19 197.042 286.541 200.325 287.484 201.643C288.426 202.962 288.94 209.158 288.94 209.158C288.94 209.158 291.734 220.563 293.915 222.494C296.096 224.426 297.691 236.714 297.691 236.714L278.416 251.876C278.416 251.876 276.723 277.098 276.36 278.073C275.998 279.049 283.378 300.85 283.378 300.85Z" fill="white"/>
<path d="M284.11 300.85C284.11 300.85 285.316 302.669 284.11 303.519C282.904 304.37 284.222 306.427 284.222 306.427C284.222 306.427 281.217 308.22 282.535 309.815C283.853 311.41 283.023 318.616 283.023 318.616L279.385 324.641C279.385 324.641 279.603 328.524 279.622 333.771C279.622 341.959 279.141 353.469 276.479 358.716L276.841 401.77C276.841 401.77 264.084 406.424 253.435 405.007L251.86 335.92C251.86 335.92 254.167 296.743 255.017 289.227C255.515 285.326 255.715 281.392 255.616 277.46C255.616 277.46 255.254 265.7 254.042 260.241C254.042 260.241 252.724 236.595 252.585 230.049C252.526 226.918 252.697 217.781 252.875 209.092C253.079 199.593 253.31 190.634 253.31 190.634L250.134 171.339C250.134 171.339 253.31 171.339 254.042 172.321C254.363 172.628 254.717 172.9 255.096 173.132C259.247 175.94 273.922 184.576 273.922 184.576C273.922 184.576 282.034 187.806 283.978 192.434C285.922 197.061 287.273 200.344 288.222 201.663C289.171 202.981 289.671 209.178 289.671 209.178C289.671 209.178 292.465 220.583 294.647 222.514C296.828 224.446 298.403 236.707 298.403 236.707L279.128 251.869C279.128 251.869 277.435 277.091 277.066 278.067C276.697 279.042 284.11 300.85 284.11 300.85Z" fill="white"/>
<path opacity="0.1" d="M261.026 196.231L262.766 201.307L253.607 210.536C253.811 201.043 254.042 192.078 254.042 192.078L250.865 172.782C250.865 172.782 254.042 172.782 254.773 173.764C255.094 174.071 255.447 174.34 255.827 174.569L263.616 197.048L261.026 196.231Z" fill="black"/>
<path d="M260.295 194.774L262.041 199.85L252.882 209.079C253.086 199.58 253.317 190.621 253.317 190.621L250.134 171.325C250.134 171.325 253.317 171.325 254.042 172.308C254.365 172.613 254.718 172.885 255.096 173.119L262.891 195.591L260.295 194.774Z" fill="white"/>
<path opacity="0.1" d="M260.295 144.548C260.3 146.923 259.927 149.284 259.188 151.542C259.063 151.562 258.936 151.556 258.814 151.525C258.692 151.495 258.577 151.44 258.476 151.364C258.305 145.431 255.386 139.861 251.794 135.121C250.786 133.69 249.564 132.422 248.17 131.363C246.761 130.305 245.009 129.809 243.254 129.972C241.278 130.243 239.531 131.587 237.535 131.759C234.899 131.976 232.54 130.15 229.924 130.058C228.86 130.068 227.811 130.305 226.846 130.753C225.882 131.201 225.023 131.849 224.329 132.655C222.955 134.282 221.934 136.177 221.331 138.219C220.295 141.316 219.731 144.552 219.657 147.817C219.624 149.663 219.446 151.977 217.733 152.65C217.862 151.292 217.708 149.923 217.28 148.628C216.852 147.333 216.161 146.141 215.249 145.128L215.209 145.088C215.209 144.904 215.209 144.732 215.209 144.548C215.158 141.553 215.703 138.579 216.813 135.797C217.923 133.016 219.576 130.483 221.675 128.348C223.773 126.212 226.276 124.516 229.037 123.358C231.798 122.2 234.762 121.604 237.755 121.604C240.749 121.604 243.713 122.2 246.474 123.358C249.235 124.516 251.737 126.212 253.836 128.348C255.935 130.483 257.587 133.016 258.697 135.797C259.807 138.579 260.353 141.553 260.302 144.548H260.295Z" fill="black"/>
<path d="M247.089 108.732C243.665 107.121 239.771 106.816 236.138 107.875C234.312 108.416 232.592 109.292 230.741 109.734C226.787 110.69 222.174 109.655 218.781 111.969C216.896 113.287 215.763 115.371 214.708 117.394L212.072 122.418C210.636 125.167 209.186 127.962 208.587 130.987C207.987 134.013 208.349 137.402 210.267 139.834C211.664 141.608 213.726 142.722 215.242 144.389C216.15 145.404 216.839 146.595 217.265 147.888C217.691 149.181 217.846 150.549 217.72 151.905C219.44 151.245 219.604 148.925 219.644 147.079C219.717 143.814 220.282 140.578 221.318 137.481C221.919 135.438 222.94 133.543 224.316 131.917C225.011 131.112 225.869 130.464 226.834 130.016C227.798 129.568 228.847 129.331 229.91 129.32C232.546 129.412 234.912 131.231 237.521 131.014C239.498 130.849 241.251 129.498 243.241 129.234C244.996 129.068 246.749 129.564 248.157 130.625C249.55 131.682 250.771 132.95 251.775 134.382C255.373 139.122 258.292 144.68 258.463 150.626C259.208 151.173 260.282 150.461 260.651 149.617C261.02 148.773 261.033 147.784 261.501 146.98C262.041 146.051 263.076 145.556 263.886 144.858C265.942 143.084 266.456 140.098 266.377 137.389C266.298 134.679 265.771 131.93 266.285 129.267C266.595 127.632 267.293 126.103 267.675 124.488C268.058 122.872 268.104 121.06 267.201 119.669C265.883 117.625 263.109 117.223 260.69 117.032C257.943 116.794 255.485 117.098 253.732 114.784C252.909 113.576 251.983 112.443 250.964 111.395C250.615 111.053 247.089 108.877 247.089 108.732Z" fill="#512E4E"/>
<path opacity="0.1" d="M175.467 247.749L168.581 235.013L166.4 254.664C166.4 254.664 167.613 263.392 167.369 264.731C167.125 266.069 172.337 278.067 172.337 278.067C172.337 278.067 189.556 308.747 196.587 310.329L220.342 293.348L214.043 285.345C214.043 285.345 211.862 284.494 211.315 285.345C211.315 285.345 199.618 265.212 198.406 263.755C197.193 262.298 197.43 259.391 197.43 259.391C197.43 259.391 195.612 257.453 196.218 255.633C196.824 253.814 192.706 247.505 192.706 247.505L196.462 243.992L175.467 247.749Z" fill="black"/>
<path d="M168.944 233.563L167.125 235.013L164.944 254.664C164.944 254.664 166.156 263.392 165.913 264.731C165.669 266.069 170.888 278.067 170.888 278.067C170.888 278.067 188.1 308.747 195.131 310.329L218.893 293.348L212.587 285.345C212.587 285.345 210.405 284.494 209.858 285.345C209.858 285.345 198.162 265.212 196.949 263.755C195.737 262.298 195.981 259.391 195.981 259.391C195.981 259.391 194.162 257.453 194.768 255.633C195.375 253.814 191.249 247.505 191.249 247.505L195.006 243.992L168.944 233.563Z" fill="white"/>
<path opacity="0.1" d="M281.804 310.547C283.121 312.149 282.291 319.341 282.291 319.341L278.654 325.366C278.654 325.366 278.871 329.255 278.884 334.496L272.769 336.408C272.217 336.581 271.631 336.619 271.06 336.519C270.49 336.419 269.952 336.184 269.491 335.834C269.03 335.483 268.659 335.028 268.41 334.505C268.16 333.982 268.04 333.407 268.058 332.828L269.112 298.806L283.378 304.264C282.166 305.108 283.497 307.178 283.497 307.178C283.497 307.178 280.472 308.945 281.804 310.547Z" fill="black"/>
<path d="M282.535 309.815C283.853 311.417 283.023 318.616 283.023 318.616L279.385 324.641C279.385 324.641 279.603 328.524 279.622 333.771L273.395 335.716C272.854 335.884 272.28 335.921 271.722 335.822C271.164 335.724 270.637 335.494 270.186 335.151C269.735 334.807 269.372 334.361 269.128 333.85C268.884 333.338 268.765 332.775 268.783 332.209L269.843 298.081L284.116 303.539C282.897 304.383 284.228 306.446 284.228 306.446C284.228 306.446 281.217 308.22 282.535 309.815Z" fill="white"/>
<path d="M287.26 293.598C287.26 293.598 286.291 299.788 283.866 300.151C281.441 300.513 280.354 310.164 277.935 309.821C275.517 309.479 277.118 300.849 277.204 299.175C277.29 297.501 274.568 290.566 276.604 288.99C278.64 287.414 285.085 288.99 285.085 288.99L287.26 293.598Z" fill="#CF6F80"/>
<path opacity="0.1" d="M292.419 245.93L296.992 236.701C296.992 236.701 298.811 243.734 298.811 247.492C298.811 251.25 301.355 251.619 301.355 251.619C301.355 251.619 304.142 254.915 302.673 257.314C301.203 259.714 300.61 265.687 300.61 265.687C300.61 265.687 301.091 277.085 298.91 278.66C296.729 280.236 296.274 284 296.274 284C296.274 284 292.268 291.152 292.393 292.853C292.518 294.554 286.818 306.071 286.818 306.071C286.818 306.071 289.606 291.759 273.362 285.575C273.362 285.575 273.237 280.717 274.449 279.385C275.662 278.054 277.553 277.447 276.367 270.716C275.181 263.986 276.024 255.943 276.024 254.328C276.024 252.713 279.662 242.64 279.662 242.64L292.419 245.93Z" fill="black"/>
<path d="M294.396 235.382L298.39 236.701C298.39 236.701 300.215 243.734 300.215 247.492C300.215 251.25 302.758 251.619 302.758 251.619C302.758 251.619 305.546 254.915 304.076 257.314C302.607 259.714 302.02 265.687 302.02 265.687C302.02 265.687 302.501 277.085 300.32 278.66C298.139 280.236 297.651 284 297.651 284C297.651 284 293.652 291.152 293.777 292.853C293.902 294.554 288.195 306.071 288.195 306.071C288.195 306.071 290.989 291.759 274.74 285.575C274.74 285.575 274.621 280.717 275.833 279.385C277.046 278.054 278.937 277.447 277.751 270.716C276.565 263.986 277.408 255.943 277.408 254.328C277.408 252.713 281.046 242.64 281.046 242.64L294.396 235.382Z" fill="white"/>
<path opacity="0.1" d="M206.195 474.594C206.195 474.594 212.56 470.593 216.738 473.5C220.916 476.407 206.195 474.594 206.195 474.594Z" fill="black"/>
<path opacity="0.1" d="M255.656 462.221C255.656 462.221 261.29 461.495 266.021 466.591C270.753 471.687 255.656 462.221 255.656 462.221Z" fill="black"/>
<g opacity="0.1">
<path d="M263.9 143.414C263.089 144.113 262.048 144.614 261.508 145.543C261.046 146.341 261.033 147.323 260.664 148.18C260.295 149.037 259.221 149.736 258.476 149.195C258.305 143.262 255.379 137.692 251.788 132.945C250.784 131.513 249.563 130.245 248.17 129.188C246.76 128.127 245.004 127.631 243.248 127.797C241.271 128.067 239.531 129.412 237.535 129.577C234.899 129.801 232.533 127.975 229.917 127.883C228.854 127.893 227.805 128.131 226.842 128.58C225.878 129.029 225.021 129.679 224.329 130.486C222.953 132.11 221.932 134.003 221.331 136.044C220.295 139.141 219.731 142.377 219.657 145.642C219.618 147.481 219.446 149.775 217.746 150.461C217.786 150.948 217.786 151.437 217.746 151.924C219.459 151.265 219.631 148.945 219.67 147.099C219.744 143.834 220.308 140.598 221.344 137.501C221.945 135.457 222.967 133.562 224.342 131.937C225.036 131.132 225.893 130.484 226.856 130.036C227.82 129.588 228.868 129.35 229.93 129.339C232.566 129.432 234.938 131.251 237.548 131.034C239.525 130.869 241.277 129.517 243.261 129.254C245.018 129.088 246.773 129.584 248.183 130.645C249.577 131.702 250.797 132.97 251.801 134.402C255.392 139.142 258.318 144.699 258.489 150.646C259.234 151.193 260.308 150.481 260.677 149.637C261.046 148.793 261.059 147.804 261.521 147C262.061 146.071 263.102 145.576 263.913 144.877C265.969 143.104 266.483 140.118 266.404 137.408C266.404 137.323 266.404 137.237 266.404 137.158C266.278 139.505 265.652 141.898 263.9 143.414Z" fill="black"/>
<path d="M215.255 142.946C213.74 141.278 211.671 140.164 210.28 138.397C209.109 136.833 208.441 134.951 208.363 132.998C208.155 135.438 208.836 137.87 210.28 139.847C211.671 141.621 213.74 142.735 215.255 144.403C216.71 146.034 217.584 148.102 217.74 150.283C217.84 148.956 217.672 147.622 217.246 146.361C216.819 145.1 216.142 143.939 215.255 142.946Z" fill="black"/>
<path d="M267.689 123.044C267.3 124.659 266.608 126.195 266.292 127.823C266.104 128.911 266.036 130.017 266.087 131.119C266.109 130.491 266.178 129.865 266.292 129.247C266.608 127.612 267.3 126.083 267.689 124.468C267.915 123.577 267.989 122.654 267.906 121.739C267.865 122.178 267.792 122.615 267.689 123.044Z" fill="black"/>
</g>
<path opacity="0.1" d="M87.4635 501.398C122.925 501.398 151.672 496.779 151.672 491.081C151.672 485.384 122.925 480.765 87.4635 480.765C52.0019 480.765 23.2546 485.384 23.2546 491.081C23.2546 496.779 52.0019 501.398 87.4635 501.398Z" fill="#02457A"/>
<path d="M89.5327 293.446H85.401V386.509H89.5327V293.446Z" fill="#535461"/>
<path d="M115.496 386.225L115.239 390.418L114.87 396.351L114.718 398.817L114.356 404.75L114.197 407.215L113.828 413.148L109.664 480.435C109.483 483.33 108.206 486.047 106.093 488.034C103.98 490.02 101.19 491.126 98.2902 491.128H76.6368C73.7379 491.126 70.9485 490.02 68.8366 488.033C66.7247 486.047 65.4492 483.329 65.2698 480.435L61.1249 413.102L60.7559 407.169L60.6044 404.703L60.2353 398.77L60.0838 396.305L59.7148 390.372L59.4512 386.179C59.4054 385.372 59.5249 384.565 59.8024 383.805C60.0799 383.046 60.5094 382.352 61.0648 381.765C61.6201 381.178 62.2895 380.711 63.0319 380.392C63.7742 380.073 64.5739 379.909 65.3818 379.91H109.67C110.475 379.917 111.27 380.089 112.006 380.415C112.742 380.741 113.403 381.215 113.949 381.807C114.495 382.398 114.914 383.096 115.18 383.856C115.446 384.616 115.553 385.422 115.496 386.225Z" fill="#3F3D56"/>
<path d="M115.239 390.418L114.87 396.331H60.0575L59.6885 390.418H115.239Z" fill="#9D9CB5"/>
<path d="M114.718 398.797L114.356 404.717H60.578L60.209 398.797H114.718Z" fill="#9D9CB5"/>
<path d="M114.197 407.189L113.835 413.102H61.0986L60.7296 407.189H114.197Z" fill="#9D9CB5"/>
<path d="M53.3822 328.326C77.4408 345.743 87.4833 372.982 87.4833 372.982C87.4833 372.982 58.4891 371.986 34.424 354.57C10.3588 337.153 0.33606 309.92 0.33606 309.92C0.33606 309.92 29.317 310.909 53.3822 328.326Z" fill="#005DAA"/>
<path d="M0.316284 309.92C0.316284 309.92 30.4175 326.632 40.0712 340.469C49.725 354.306 87.4833 372.982 87.4833 372.982" stroke="#535461" stroke-width="2" stroke-miterlimit="10"/>
<path d="M68.9139 293.242C82.0074 302.715 87.4833 317.541 87.4833 317.541C87.4833 317.541 71.7013 317 58.6012 307.527C45.5011 298.054 40.0383 283.222 40.0383 283.222C40.0383 283.222 55.8138 283.762 68.9139 293.242Z" fill="#005DAA"/>
<path d="M40.0383 283.222C40.0383 283.222 56.42 292.319 61.6719 299.847C66.9238 307.376 87.4833 317.541 87.4833 317.541" stroke="#535461" stroke-width="2" stroke-miterlimit="10"/>
<path d="M106.494 316.79C91.4502 333.329 88.2675 354.945 88.2675 354.945C88.2675 354.945 109.479 349.737 124.51 333.191C139.541 316.644 142.737 295.035 142.737 295.035C142.737 295.035 121.538 300.25 106.494 316.79Z" fill="#005DAA"/>
<path d="M142.75 295.042C142.75 295.042 123.153 311.997 118.171 323.678C113.189 335.36 88.2675 354.945 88.2675 354.945" stroke="#535461" stroke-width="2" stroke-miterlimit="10"/>
<path d="M658.741 310.969C658.741 310.969 647.861 256.82 652.026 250.083C652.026 250.083 652.177 243.82 651.927 235.837C651.927 235.534 651.927 235.23 651.927 234.921C652.66 235.409 653.424 235.85 654.214 236.239C658.051 238.211 662.456 238.78 666.668 237.848L663.373 234.176C662.582 233.299 661.759 232.35 661.587 231.189C661.416 230.029 661.891 228.994 662.299 227.959C665.429 220.049 665.594 210.101 659.564 204.062C654.471 198.986 653.232 192.434 647.703 187.799C643.664 184.404 641.443 179.427 639.348 174.615C637.575 170.548 635.789 166.447 634.774 162.136C633.984 158.767 633.667 155.28 632.58 151.99C631.493 148.701 629.457 145.504 626.274 144.034C625.14 143.513 623.882 143.216 622.847 142.524C621.49 141.608 620.673 140.118 619.691 138.813C614.703 132.22 597.998 136.103 590.09 138.78C587.941 139.454 585.95 140.557 584.239 142.023L584.311 141.904C584.371 141.805 584.443 141.707 584.509 141.608C583.644 142.308 582.896 143.142 582.295 144.08C581.142 145.906 580.661 148.035 579.699 150.013C578.539 152.353 572.088 158.886 574.862 161.516C575.056 161.693 575.279 161.835 575.521 161.938C576.562 162.372 577.709 162.486 578.816 162.268L578.697 162.551C577.75 164.872 577.264 167.355 577.267 169.862C577.267 180.693 586.196 189.474 597.22 189.474C599.293 189.476 601.353 189.158 603.329 188.531C603.375 188.782 603.415 189.032 603.461 189.283C603.461 189.381 603.494 189.48 603.507 189.579L603.158 190.067C603.14 190.037 603.12 190.008 603.098 189.981L592.753 204.445C591.171 205.559 582.064 212.151 581.55 217.095C581.01 222.507 580.47 228.843 580.47 228.843L580.397 230.201C579.945 230.579 579.416 230.854 578.847 231.007C578.279 231.161 577.683 231.189 577.102 231.091C573.874 230.563 573.873 242.957 573.873 242.957C573.873 242.957 571.725 244.934 570.249 243.22C568.773 241.506 564.872 247.314 564.872 247.314L540.425 248.369L539.865 248.402L538.547 244.321C538.405 243.891 538.099 243.534 537.696 243.328C537.292 243.121 536.824 243.083 536.392 243.22C536.29 243.254 536.191 243.296 536.095 243.345L536.003 243.398L535.832 243.517L535.746 243.596C535.699 243.639 535.655 243.685 535.614 243.734L535.535 243.827L535.496 243.866C535.344 244.077 535.243 244.32 535.202 244.576C535.16 244.833 535.18 245.095 535.259 245.343L536.392 248.843C531.674 249.793 526.85 252.469 530.784 259.839L510.844 256.154L517.295 261.573L550.599 268.449C550.158 269.24 550.448 270.387 551.825 272.002C557.755 278.97 568.562 280.862 572.911 281.35C574.06 283.92 575.495 286.352 577.188 288.601L576.812 295.543C576.812 295.543 565.801 348.452 563.785 351.135C564.803 349.981 565.734 348.754 566.572 347.463C563.376 358.334 558.909 373.212 557.736 375.441C555.851 379 554.105 393.404 556.253 394.327C556.912 394.611 558.797 394.472 561.485 394.268V395.461L561.366 440.677C561.366 440.677 561.907 468.411 560.424 471.054C558.942 473.698 558.546 479.242 558.546 479.242C558.546 479.242 552.615 490.178 547.917 494.575C547.885 494.609 547.85 494.64 547.812 494.668L547.667 493.639C547.667 493.639 542.019 500.772 529.526 500.37C529.526 500.37 522.007 505.261 533.156 505.525C544.306 505.789 558.546 505.129 558.546 505.129C558.546 505.129 568.49 489.967 576.819 491.945V503.435H579.369V491.76C580.552 490.981 581.564 489.97 582.344 488.789C583.125 487.607 583.657 486.279 583.909 484.885C584.128 483.448 583.968 481.979 583.445 480.623C582.923 479.267 582.056 478.071 580.931 477.152C580.425 476.695 580.02 476.138 579.74 475.516C579.459 474.894 579.311 474.221 579.303 473.539L579.211 473.619C579.211 473.388 579.152 473.151 579.125 472.907C578.394 466.974 577.478 454.732 580.713 445.674C585.148 433.254 586.493 415.956 583.264 405.659C582.222 402.368 581.366 399.02 580.7 395.633C580.621 395.204 580.549 394.795 580.483 394.413C582.69 394.712 584.876 395.152 587.026 395.731C594.505 397.795 610.867 398.177 624.837 398.065C624.87 398.447 624.91 398.85 624.956 399.252C625.205 402.047 625.726 404.811 626.511 407.505C628.264 412.779 629.068 436.03 629.068 436.03C629.068 436.03 631.328 455.147 630.096 462.926C629.437 467.25 628.778 471.595 628.402 475.959V476.045C628.402 476.045 624.699 486.592 621.991 492.321C621.925 492.466 621.852 492.611 621.786 492.749C621.064 492.815 620.354 492.972 619.671 493.217C619.671 493.217 616.04 500.469 612.423 501.669C608.805 502.868 610.004 506.817 618.195 505.367C626.386 503.916 638.755 502.73 638.755 502.73L639.288 495.333L641.805 492.182L641.147 499.559L643.829 499.032L643.473 490.06L647.591 484.904C647.591 484.904 652.566 480.474 645.173 471.76V471.951C645.094 471.825 645.021 471.694 644.936 471.568V471.529C643.71 469.63 642.735 466.09 644.52 459.808C647.749 448.456 649.627 438.152 649.627 438.152C649.627 438.152 656.836 410.551 648.171 397.492H648.553C647.665 395.654 647.038 393.701 646.688 391.69C646.644 391.453 646.605 391.209 646.57 390.959C652.981 390.589 659.274 389.429 664.408 386.924C664.388 386.898 661.298 321.397 658.741 310.969ZM577.34 265.284V265.416L576.022 265.482L577.34 265.284ZM572.819 265.911C572.602 265.959 572.4 266.056 572.226 266.194C571.66 266.996 571.304 267.928 571.192 268.904L569.136 268.442C569.136 268.442 567.692 268.132 565.617 267.783L564.635 266.794C567.337 266.57 570.144 266.24 572.819 265.911Z" fill="url(#paint1_linear_7_198)"/>
<path d="M640.843 490.152L640.059 499.493L642.689 498.966L642.293 488.833L640.843 490.152Z" fill="#1D2366"/>
<path d="M580.858 445.799C577.689 454.831 578.585 467.02 579.297 472.94C579.56 475.128 579.804 476.46 579.804 476.46C579.804 476.46 575.066 487.258 574.671 487.667C574.275 488.075 560.727 496.349 560.727 496.349L551.258 501.879C551.258 501.879 541.65 497.667 546.257 496.217C547.198 495.839 548.045 495.261 548.741 494.523C553.354 490.139 559.146 479.242 559.146 479.242C559.146 479.242 559.541 473.711 560.991 471.081C562.441 468.45 561.913 440.809 561.913 440.809L562.025 395.751V389.878L580.048 390.009C580.162 392.003 580.421 393.986 580.825 395.942C581.472 399.319 582.311 402.655 583.336 405.936C586.512 416.213 585.194 433.426 580.858 445.799Z" fill="#FFB0B1"/>
<path opacity="0.1" d="M579.804 476.46C579.804 476.46 575.066 487.258 574.671 487.667C574.275 488.075 560.727 496.349 560.727 496.349L551.258 501.879C551.258 501.879 541.65 497.667 546.257 496.217C547.198 495.839 548.045 495.261 548.741 494.523L549.149 497.403L552.306 497.271L579.323 472.953C579.56 475.128 579.804 476.46 579.804 476.46Z" fill="black"/>
<path d="M579.475 473.566L552.306 498.049L549.149 498.181L548.49 493.567C548.49 493.567 542.968 500.673 530.698 500.278C530.698 500.278 523.331 505.149 534.25 505.413C545.169 505.677 559.113 505.017 559.113 505.017C559.113 505.017 568.852 489.855 577.003 491.833V503.284H579.507V491.727C580.672 490.943 581.665 489.932 582.429 488.754C583.192 487.575 583.709 486.255 583.949 484.871C584.166 483.446 584.012 481.99 583.503 480.641C582.994 479.293 582.147 478.098 581.043 477.172C580.55 476.709 580.156 476.151 579.887 475.531C579.617 474.911 579.477 474.242 579.475 473.566Z" fill="#005DAA"/>
<path d="M643.347 459.88C641.595 466.143 642.55 469.67 643.749 471.562V471.601C645.288 473.937 646.357 476.55 646.899 479.294L647.005 479.888L634.643 497.917L627.934 500.554C627.934 500.554 617.147 496.869 619.118 495.815C619.612 495.557 620.383 494.186 621.266 492.294C623.902 486.592 627.539 476.071 627.539 476.071V475.985C627.921 471.641 628.528 467.31 629.2 462.998C630.406 455.239 628.191 436.194 628.191 436.194C628.191 436.194 627.401 413.036 625.687 407.769C624.914 405.091 624.4 402.345 624.152 399.568C623.796 396.272 623.717 393.556 623.717 393.556C623.717 393.556 630.821 383.668 643.842 394.347C644.883 395.199 645.799 396.193 646.563 397.3C655.558 410.102 648.316 438.304 648.316 438.304C648.316 438.304 646.504 448.561 643.347 459.88Z" fill="#FFB0B1"/>
<path opacity="0.1" d="M647.025 479.888L634.662 497.918L627.954 500.554C627.954 500.554 617.167 496.869 619.137 495.815C619.632 495.558 620.403 494.186 621.286 492.294C625.852 492.255 628.218 496.606 628.218 496.606L634.003 495.683C634.003 495.683 641.634 480.679 643.348 479.763C645.061 478.846 643.611 472.913 643.611 472.913V471.404C643.657 471.456 643.697 471.516 643.75 471.568V471.608C645.288 473.944 646.357 476.557 646.899 479.301L647.025 479.888Z" fill="black"/>
<path d="M628.613 496.995C628.613 496.995 625.318 490.943 619.006 493.178C619.006 493.178 615.454 500.429 611.902 501.603C608.35 502.776 609.536 506.731 617.562 505.288C625.589 503.844 637.687 502.651 637.687 502.651L638.214 495.274L646.372 484.878C646.372 484.878 651.235 480.468 644 471.786V473.296C644 473.296 645.45 479.229 643.736 480.145C642.023 481.061 634.419 496.072 634.419 496.072L628.613 496.995Z" fill="#005DAA"/>
<path opacity="0.1" d="M580.068 389.996C580.181 391.99 580.441 393.973 580.845 395.929C573.425 394.841 566.539 395.382 562.025 395.738V389.864L580.068 389.996Z" fill="black"/>
<path opacity="0.1" d="M647.295 398.942C647.295 398.942 636.751 399.456 624.178 399.561C623.823 396.265 623.743 393.549 623.743 393.549C623.743 393.549 630.847 383.661 643.868 394.34C644.909 395.192 645.825 396.186 646.589 397.294C646.794 397.856 647.029 398.406 647.295 398.942Z" fill="black"/>
<path d="M647.295 397.755C647.295 397.755 601.115 399.99 587.039 396.041C572.964 392.093 559.014 395.514 556.912 394.598C554.81 393.681 556.517 379.33 558.362 375.777C560.207 372.224 570.328 336.289 570.328 336.289L580.068 285.49L590.328 282.662L591.053 282.457L608.93 277.526L622.03 273.907C622.03 273.907 648.079 375.645 645.845 383.147C645.034 386.02 644.903 389.042 645.463 391.974C645.804 393.976 646.421 395.922 647.295 397.755Z" fill="#005DAA"/>
<path d="M546.118 250.749C546.118 250.749 536.893 260.637 543.878 266.148C550.863 271.659 555.456 266.675 555.456 266.675L546.118 250.749Z" fill="#C7DAF5"/>
<path opacity="0.1" d="M546.118 250.749C546.118 250.749 536.893 260.637 543.878 266.148C550.863 271.659 555.456 266.675 555.456 266.675L546.118 250.749Z" fill="black"/>
<path d="M620.653 185.736C620.653 185.736 619.572 186.764 617.945 188.281C615.625 190.449 612.192 193.62 609.148 196.277C604.93 199.949 601.451 202.645 602.696 200.344C603.942 198.044 603.705 194.036 603.085 190.285C603.039 190.034 602.999 189.784 602.953 189.54C602.44 186.785 601.76 184.064 600.917 181.392C600.917 181.392 607.731 172.585 611.5 169.11C612.904 167.792 613.885 167.251 613.945 168.168C614.011 169.401 614.933 172.123 616.08 175.01C616.113 175.103 616.146 175.188 616.185 175.281C616.95 177.258 617.813 179.289 618.571 181.042C619.73 183.732 620.653 185.736 620.653 185.736Z" fill="#FFB0B1"/>
<path opacity="0.1" d="M616.185 175.281C615.545 178.726 613.991 181.936 611.687 184.575C609.382 187.215 606.412 189.187 603.085 190.285C602.561 187.275 601.837 184.304 600.917 181.392C600.917 181.392 613.747 164.812 613.945 168.168C613.991 169.44 614.992 172.261 616.185 175.281Z" fill="black"/>
<path opacity="0.1" d="M601.807 194.715L603.467 192.374C603.467 192.374 604.568 199.085 608.614 196.125C612.66 193.165 612.858 218.4 612.858 218.4L608.515 283.354L577.135 281.475L578.025 250.089L581.577 234.268L590.361 211.268L595.586 203.667L601.807 194.715Z" fill="black"/>
<path d="M612.857 218.803L608.904 277.533L608.489 283.756L590.993 282.708L590.334 282.668L577.155 281.877L578.045 250.485L581.596 234.664L590.38 211.663L595.606 204.062L601.826 195.077L603.487 192.744C603.487 192.744 604.587 199.454 608.633 196.495L608.719 196.435C612.673 193.93 612.857 218.803 612.857 218.803Z" fill="#005DAA"/>
<path d="M582.038 229.166C582.038 229.166 580.463 232.462 577.3 231.928C574.137 231.394 574.144 243.794 574.144 243.794C574.144 243.794 572.042 245.771 570.592 244.057C569.142 242.344 565.32 248.138 565.32 248.138L541.374 249.193C541.374 249.193 552.029 254.064 549.94 268.805C549.94 268.805 586.117 266.563 587.303 263.142C588.489 259.721 582.038 229.166 582.038 229.166Z" fill="white"/>
<path opacity="0.03" d="M582.038 229.166C582.038 229.166 580.463 232.462 577.3 231.928C574.137 231.394 574.144 243.794 574.144 243.794C574.144 243.794 572.042 245.771 570.592 244.057C569.142 242.344 565.32 248.138 565.32 248.138L541.374 249.193C541.374 249.193 552.029 254.064 549.94 268.805C549.94 268.805 586.117 266.563 587.303 263.142C588.489 259.721 582.038 229.166 582.038 229.166Z" fill="black"/>
<path d="M512.445 256.939L518.758 262.331L570.724 273.254L564.279 266.675L512.445 256.939Z" fill="white"/>
<path d="M601.906 196.791C601.042 198.11 598.571 204.86 596.509 210.754C594.789 215.665 593.352 219.983 593.352 219.983C593.352 219.983 589.998 241.829 588.285 245.778C586.572 249.727 587.501 265.126 587.501 265.126L581.115 303.157C581.115 303.157 578.223 322.769 573.755 334.483C569.346 346.013 564.437 351.418 564.286 351.59C566.263 348.913 577.036 296.215 577.036 296.215L580.595 229.752C580.595 229.752 581.115 223.437 581.643 218.038C582.17 212.639 592.845 205.269 592.845 205.269L603.138 190.627C604.172 192.012 603.48 194.425 601.906 196.791Z" fill="white"/>
<path d="M575.066 282.207C575.066 282.207 559.91 281.547 552.569 272.727C545.229 263.907 569.537 269.207 569.537 269.207L575.857 270.657L575.066 282.207Z" fill="#FFB0B1"/>
<path opacity="0.1" d="M645.845 383.153C645.034 386.026 644.903 389.048 645.463 391.98C628.929 393.154 611.243 388.684 611.243 388.684C607.948 391.717 599.27 396.186 599.27 396.186L594.538 337.515C591.514 329.605 590.328 288.159 590.328 288.159C590.328 288.159 590.598 285.991 590.987 282.741C590.987 282.662 590.987 282.576 591.02 282.497C592.199 273.419 594.538 256.378 595.685 254.078C597.266 250.913 590.822 242.495 590.822 242.495L593.754 217.478L594.11 214.458C600.291 211.696 605.029 202.876 605.029 202.876L608.666 196.501C612.62 193.963 612.824 218.836 612.824 218.836L608.871 277.566L621.971 273.947C621.971 273.947 648.079 375.652 645.845 383.153Z" fill="black"/>
<path d="M662.813 387.208C644.791 396.16 612.034 387.867 612.034 387.867C608.739 390.899 600.06 395.369 600.06 395.369L595.323 336.698C592.305 328.787 591.118 287.342 591.118 287.342C591.118 287.342 594.927 256.418 596.509 253.26C596.97 252.337 596.746 250.966 596.199 249.489C593.51 242.461 592.521 234.896 593.313 227.412L594.578 216.66L594.927 213.648C601.115 210.879 605.853 202.058 605.853 202.058L609.148 196.284L615.21 185.644L618.083 180.607L618.571 181.049L622.294 184.424C622.294 184.424 623.875 185.743 626.247 187.72C631.407 192.071 640.323 199.731 644.922 204.418C648.968 208.545 650.247 224.597 650.616 236.681C650.86 244.638 650.715 250.874 650.715 250.874C646.636 257.591 657.304 311.522 657.304 311.522C659.788 321.945 662.813 387.208 662.813 387.208Z" fill="white"/>
<path opacity="0.03" d="M628.218 201.927C628.218 201.927 615.849 225.481 617.286 234.433C618.722 243.385 622.808 253.517 620.838 255.884C620.161 256.781 619.285 257.508 618.281 258.01C617.276 258.512 616.168 258.775 615.045 258.778C613.068 258.91 607.797 262.595 607.797 262.99C607.797 263.386 602.927 263.386 598.571 265.232C594.216 267.077 587.784 268.126 587.784 268.126C587.784 268.126 575.264 267.73 574.098 268.917C572.931 270.103 571.732 277.203 574.229 282.866C576.727 288.529 579.501 292.754 581.597 293.526C583.692 294.297 596.99 289.84 607.777 288.786C618.564 287.731 630.274 279.181 630.274 279.181C630.274 279.181 643.17 274.566 645.43 266.807C647.69 259.048 642.669 216.403 642.669 216.403C642.669 216.403 638.873 196.527 628.218 201.927Z" fill="black"/>
<path opacity="0.03" d="M626.636 199.949C626.636 199.949 614.268 223.509 615.717 232.455C617.167 241.401 621.239 251.54 619.263 253.913C618.588 254.81 617.714 255.539 616.71 256.041C615.706 256.543 614.599 256.806 613.477 256.807C611.5 256.939 606.228 260.624 606.228 261.019C606.228 261.415 601.359 261.415 597.003 263.254C592.647 265.093 586.216 266.148 586.216 266.148C586.216 266.148 573.696 265.752 572.536 266.939C571.376 268.126 570.164 275.232 572.668 280.888C575.172 286.544 577.939 290.777 580.035 291.548C582.13 292.319 595.428 287.863 606.215 286.815C617.002 285.766 628.712 277.203 628.712 277.203C628.712 277.203 641.601 272.589 643.835 264.836C646.069 257.084 641.074 214.425 641.074 214.425C641.074 214.425 637.292 194.556 626.636 199.949Z" fill="black"/>
<path d="M627.829 200.74C627.829 200.74 615.46 224.3 616.91 233.246C618.36 242.192 622.432 252.331 620.462 254.697C619.787 255.597 618.913 256.327 617.908 256.831C616.902 257.334 615.794 257.597 614.67 257.598C612.693 257.73 607.421 261.415 607.421 261.804C607.421 262.193 602.558 262.199 598.196 264.045C593.833 265.891 587.408 266.939 587.408 266.939C587.408 266.939 574.888 266.543 573.722 267.73C572.556 268.917 571.356 276.023 573.854 281.679C576.351 287.335 579.125 291.568 581.221 292.339C583.316 293.11 596.614 288.654 607.401 287.599C618.188 286.544 629.898 277.994 629.898 277.994C629.898 277.994 642.794 273.38 645.054 265.621C647.314 257.862 642.326 215.216 642.326 215.216C642.326 215.216 638.478 195.374 627.829 200.74Z" fill="white"/>
<path opacity="0.1" d="M627.559 263.933C627.559 263.933 617.674 261.955 621.114 265.251C624.554 268.548 624.534 271.435 628.745 271.303C632.956 271.171 627.559 263.933 627.559 263.933Z" fill="black"/>
<path opacity="0.1" d="M644.263 334.852C644.263 334.852 639.796 337.878 648.342 344.853C656.889 351.827 644.263 334.852 644.263 334.852Z" fill="black"/>
<path opacity="0.1" d="M635.737 359.725C635.737 360.12 634.155 374.228 640.073 377.754C645.99 381.281 635.737 359.725 635.737 359.725Z" fill="black"/>
<path d="M541.782 249.16C537.011 249.325 526.705 250.781 532.049 260.756C536.774 269.583 544.715 263.682 549.182 259.206C548.092 255.033 545.444 251.437 541.782 249.16Z" fill="#FFB0B1"/>
<path opacity="0.1" d="M626.247 188.122C621.187 191.583 616.943 194.504 616.113 195.11C613.846 196.791 609.523 206.66 606.736 211.696C604.515 215.75 597.299 216.792 594.578 217.049L594.927 214.036C601.115 211.268 605.853 202.447 605.853 202.447L618.083 180.996L622.294 184.826C622.294 184.826 623.875 186.145 626.247 188.122Z" fill="black"/>
<path d="M626.247 187.727C621.187 191.188 616.943 194.108 616.113 194.721C613.846 196.396 609.523 206.264 606.736 211.301C604.515 215.355 597.299 216.397 594.578 216.654L594.927 213.641C601.115 210.872 605.853 202.052 605.853 202.052L618.083 180.601L622.294 184.418C622.294 184.418 623.875 185.723 626.247 187.727Z" fill="#DCE7FF"/>
<path d="M616.508 170.93C616.511 174.887 615.311 178.752 613.068 182.011C610.419 185.865 606.477 188.642 601.957 189.837C597.437 191.032 592.638 190.566 588.432 188.525C584.226 186.483 580.89 183 579.031 178.709C577.171 174.418 576.911 169.602 578.298 165.135C579.684 160.668 582.626 156.846 586.588 154.363C590.55 151.88 595.27 150.9 599.893 151.602C604.515 152.303 608.734 154.638 611.782 158.184C614.831 161.731 616.507 166.253 616.508 170.93Z" fill="#FFB0B1"/>
<path opacity="0.1" d="M650.616 236.687C647.94 235.041 645.76 232.698 644.31 229.911C643.209 227.735 642.478 225.223 640.6 223.681C638.906 222.297 636.646 221.96 634.537 221.341C627.605 219.29 621.793 212.962 621.575 205.737C621.47 202.335 622.531 198.94 622.05 195.572C621.776 193.665 621.019 191.861 619.849 190.331C619.268 189.599 618.632 188.914 617.945 188.281C617.022 187.41 616.053 186.567 615.21 185.644C614.679 185.072 614.214 184.442 613.826 183.765C613.513 183.211 613.259 182.625 613.068 182.018C611.75 177.984 612.95 173.198 611.5 169.117L611.421 168.893C610.874 167.443 609.76 165.992 608.212 165.88C606.663 165.768 605.339 167.054 603.863 167.627C600.772 168.827 597.438 166.783 594.861 164.7C592.285 162.617 589.379 160.237 586.104 160.699C583.936 161.009 582.222 162.485 580.226 163.25C579.775 163.425 579.31 163.559 578.835 163.652C580.525 159.436 583.63 155.941 587.616 153.766C591.602 151.592 596.22 150.874 600.678 151.736C605.135 152.598 609.154 154.986 612.043 158.49C614.931 161.994 616.51 166.395 616.508 170.936C616.51 172.308 616.367 173.676 616.08 175.017C616.113 175.109 616.146 175.195 616.185 175.287C616.95 177.265 617.813 179.295 618.571 181.049L622.294 184.424C622.294 184.424 623.875 185.743 626.247 187.72C631.407 192.071 640.323 199.731 644.922 204.418C648.968 208.558 650.234 224.604 650.616 236.687Z" fill="black"/>
<path d="M579.995 151.206C580.938 149.288 581.405 147.139 582.532 145.319C584.186 142.682 587.072 140.995 590.038 139.973C597.781 137.303 614.142 133.427 619.032 139.973C619.994 141.291 620.791 142.755 622.122 143.664C623.137 144.357 624.363 144.653 625.477 145.174C628.593 146.638 630.583 149.828 631.644 153.085C632.705 156.341 633.022 159.835 633.799 163.191C634.794 167.495 636.54 171.576 638.28 175.63C640.329 180.416 642.504 185.38 646.458 188.762C651.855 193.376 653.047 199.909 658.055 204.972C663.986 210.984 663.795 220.906 660.737 228.783C660.335 229.818 659.881 230.899 660.039 232C660.197 233.101 661.014 234.103 661.785 234.98L665.027 238.639C657.357 240.491 648.678 236.483 645.107 229.449C644.006 227.274 643.275 224.769 641.39 223.219C639.703 221.835 637.437 221.505 635.335 220.886C628.402 218.829 622.59 212.494 622.373 205.269C622.267 201.874 623.328 198.479 622.847 195.117C622.58 193.197 621.819 191.38 620.64 189.843C618.828 187.476 616.093 185.888 614.617 183.251C612.119 178.841 614.017 173.112 612.218 168.379C611.665 166.928 610.558 165.478 609.009 165.366C607.461 165.254 606.136 166.539 604.653 167.113C601.57 168.313 598.235 166.276 595.659 164.186C593.082 162.096 590.176 159.723 586.895 160.191C584.727 160.494 583.02 161.971 581.023 162.742C579.547 163.309 576.555 163.817 575.264 162.571C572.536 160.059 578.855 153.553 579.995 151.206Z" fill="#591D4B"/>
<path opacity="0.1" d="M646.939 227.274C645.832 225.098 645.107 222.593 643.222 221.051C641.535 219.666 639.269 219.33 637.16 218.71C630.234 216.66 624.422 210.325 624.198 203.1C624.093 199.705 625.154 196.303 624.679 192.941C624.403 191.034 623.643 189.23 622.472 187.7C620.653 185.334 617.918 183.745 616.449 181.108C613.951 176.705 615.849 170.976 614.044 166.236C613.497 164.792 612.383 163.342 610.841 163.224C609.299 163.105 607.961 164.404 606.485 164.977C603.401 166.177 600.061 164.133 597.491 162.05C594.921 159.967 592.001 157.587 588.726 158.049C586.558 158.358 584.845 159.835 582.855 160.6C581.379 161.167 578.381 161.681 577.089 160.435C574.374 157.798 580.694 151.305 581.827 148.971C582.769 147.046 583.237 144.904 584.371 143.084C584.43 142.985 584.496 142.886 584.562 142.788C583.714 143.49 582.982 144.322 582.394 145.253C581.267 147.073 580.799 149.208 579.857 151.14C578.717 153.474 572.397 159.987 575.119 162.604C576.437 163.856 579.402 163.342 580.878 162.775C582.855 162.004 584.582 160.527 586.75 160.224C590.044 159.756 592.944 162.136 595.514 164.219C598.084 166.302 601.444 168.346 604.515 167.146C605.991 166.572 607.283 165.28 608.864 165.399C610.446 165.518 611.5 166.961 612.073 168.412C613.872 173.145 611.974 178.873 614.472 183.284C615.948 185.874 618.683 187.496 620.495 189.876C621.674 191.413 622.435 193.23 622.702 195.15C623.183 198.512 622.122 201.907 622.228 205.302C622.445 212.553 628.257 218.862 635.19 220.919C637.278 221.538 639.558 221.868 641.245 223.252C643.137 224.801 643.881 227.307 644.962 229.482C648.533 236.516 657.212 240.524 664.882 238.672L663.353 236.944C656.705 237.043 649.977 233.259 646.939 227.274Z" fill="black"/>
<path opacity="0.1" d="M601.51 197.187C600.647 198.505 598.176 205.256 596.113 211.149C594.183 210.398 592.43 205.605 592.43 205.605L602.723 190.957C603.777 192.407 603.085 194.813 601.51 197.187Z" fill="black"/>
<path d="M601.906 196.791C601.042 198.11 598.571 204.86 596.509 210.754C594.578 210.009 592.825 205.209 592.825 205.209L603.118 190.568C604.172 192.012 603.481 194.425 601.906 196.791Z" fill="#DCE7FF"/>
<path d="M542.059 264.137L536.352 246.134C536.285 245.923 536.26 245.701 536.278 245.481C536.297 245.26 536.358 245.045 536.46 244.849C536.562 244.652 536.701 244.477 536.87 244.335C537.04 244.192 537.235 244.085 537.446 244.018C537.871 243.885 538.331 243.926 538.726 244.131C539.121 244.336 539.419 244.688 539.555 245.112L545.262 263.096L544.695 266.86L542.059 264.137Z" fill="#BE8B87"/>
<path opacity="0.1" d="M536.893 244.552C537.318 244.417 537.78 244.457 538.176 244.662C538.573 244.867 538.872 245.221 539.008 245.646L544.715 263.63L544.286 266.451L544.701 266.886L545.268 263.122L539.529 245.139C539.392 244.715 539.094 244.362 538.699 244.157C538.304 243.952 537.845 243.912 537.42 244.044C537.063 244.16 536.754 244.392 536.543 244.703C536.655 244.643 536.772 244.593 536.893 244.552Z" fill="white"/>
<path d="M542.059 264.137L545.262 263.122L544.794 266.207L544.695 266.886L543.759 265.911L542.059 264.137Z" fill="#EFC8C4"/>
<path d="M543.759 265.911C543.815 265.84 543.884 265.782 543.963 265.739C544.01 265.71 544.063 265.694 544.118 265.694C544.173 265.694 544.227 265.71 544.273 265.739C544.318 265.794 544.356 265.853 544.385 265.917C544.429 265.99 544.488 266.052 544.559 266.099C544.629 266.146 544.71 266.176 544.794 266.188L544.695 266.847L543.759 265.911Z" fill="#727A9C"/>
<path d="M536.32 252.528C536.32 252.528 547.766 252.463 545.071 257.334C542.375 262.206 538.165 262.793 538.165 262.793L536.32 252.528Z" fill="#FFB0B1"/>
<path d="M465.132 33.8972H464.638C444.975 33.8972 427.585 44.3063 417.582 59.6662C407.579 44.3063 390.189 33.8972 370.526 33.8972H370.031C355.275 34.0379 341.17 39.999 330.781 50.4851C320.393 60.9711 314.562 75.1348 314.554 89.8982C314.554 108.231 322.58 134.244 338.23 155.649C368.048 196.435 417.582 232.119 417.582 232.119C417.582 232.119 467.116 196.442 496.927 155.649C512.584 134.244 520.603 108.231 520.603 89.8982C520.595 75.136 514.765 60.9733 504.378 50.4874C493.991 40.0015 479.888 34.0396 465.132 33.8972ZM458.062 158.787C455.822 158.778 453.638 158.093 451.795 156.82C449.952 155.547 448.537 153.746 447.736 151.654H435.98C435.206 151.649 434.452 151.403 433.825 150.949C433.198 150.495 432.728 149.857 432.481 149.123L428.87 138.239L417.443 178.181C417.221 178.95 416.755 179.626 416.116 180.108C415.477 180.589 414.698 180.85 413.898 180.851H413.668C412.833 180.811 412.037 180.485 411.413 179.928C410.79 179.372 410.376 178.618 410.241 177.792L398.465 106.939L389.859 148.866C389.662 149.662 389.204 150.37 388.558 150.875C387.911 151.38 387.115 151.655 386.294 151.654H369.735C369.238 151.675 368.743 151.596 368.278 151.42C367.813 151.244 367.389 150.977 367.03 150.633C366.671 150.289 366.386 149.876 366.191 149.419C365.996 148.961 365.895 148.469 365.895 147.972C365.895 147.475 365.996 146.983 366.191 146.526C366.386 146.069 366.671 145.656 367.03 145.312C367.389 144.968 367.813 144.7 368.278 144.525C368.743 144.349 369.238 144.27 369.735 144.291H383.395L395.586 87.9205C395.786 87.0871 396.269 86.3491 396.953 85.8327C397.637 85.3163 398.479 85.0535 399.335 85.0893C400.191 85.1251 401.008 85.4573 401.646 86.029C402.284 86.6008 402.704 87.3765 402.834 88.2238L414.86 160.501L425.1 124.764C425.314 124.012 425.765 123.348 426.386 122.873C427.007 122.398 427.765 122.136 428.547 122.128H428.619C429.394 122.128 430.148 122.373 430.776 122.827C431.403 123.282 431.87 123.923 432.112 124.659L438.642 144.31H447.591C448.227 142.377 449.385 140.656 450.937 139.339C452.489 138.022 454.374 137.16 456.385 136.847C458.396 136.535 460.454 136.784 462.332 137.567C464.21 138.351 465.835 139.638 467.028 141.288C468.221 142.937 468.936 144.884 469.093 146.914C469.249 148.943 468.842 150.977 467.917 152.79C466.991 154.603 465.583 156.125 463.847 157.188C462.112 158.251 460.116 158.813 458.081 158.813L458.062 158.787Z" fill="#005DAA"/>
</g>
<defs>
<linearGradient id="paint0_linear_7_198" x1="234.807" y1="510.812" x2="234.807" y2="105.166" gradientUnits="userSpaceOnUse">
<stop stop-color="#808080" stop-opacity="0.25"/>
<stop offset="0.54" stop-color="#808080" stop-opacity="0.12"/>
<stop offset="1" stop-color="#808080" stop-opacity="0.1"/>
</linearGradient>
<linearGradient id="paint1_linear_7_198" x1="588.733" y1="505.683" x2="588.733" y2="135.2" gradientUnits="userSpaceOnUse">
<stop stop-color="#808080" stop-opacity="0.25"/>
<stop offset="0.54" stop-color="#808080" stop-opacity="0.12"/>
<stop offset="1" stop-color="#808080" stop-opacity="0.1"/>
</linearGradient>
<clipPath id="clip0_7_198">
<rect width="728.175" height="516" fill="white"/>
</clipPath>
</defs>
</svg>
