<svg width="331" height="130" viewBox="0 0 331 130" fill="none" xmlns="http://www.w3.org/2000/svg">
<path d="M331 0H0V129.383H331V0Z" fill="white"/>
<path d="M190.554 65.9645H321.853V50.3806H184.983L190.554 65.9645Z" fill="black"/>
<path d="M175.59 24.1188L181.168 39.7101H321.853V24.1188H175.59Z" fill="black"/>
<path d="M75.4615 63.8812C77.7447 60.0506 78.8863 55.2268 78.8863 49.4025C78.8863 41.3604 76.1768 35.1328 70.7578 30.7272C65.3387 26.3216 57.8244 24.1188 48.2147 24.1188H16.3221V107.877H35.8594V78.2554H46.4373L60.7434 107.877H81.6752V107.011L64.7463 73.1927C69.6089 70.8182 73.1782 67.7118 75.4615 63.8812ZM56.5889 59.6921C54.7175 61.7083 51.9213 62.7163 48.2147 62.7163H35.8594V39.6504H48.2147C51.8852 39.6504 54.6742 40.6809 56.5672 42.7343C58.4602 44.7878 59.4067 47.6253 59.4067 51.2394C59.3995 54.8534 58.4675 57.6686 56.5889 59.6921Z" fill="black"/>
<path d="M111.501 24.1188H92.0219V107.877H111.501V24.1188Z" fill="black"/>
<path d="M167.888 24.1188H149.521L119.796 107.87H140.67L145.345 92.2264H172.122L176.855 107.87H197.837L192.245 92.2264H321.86V76.635H186.674L167.888 24.1188ZM150.02 76.635L158.705 47.5879L167.44 76.635H150.02Z" fill="black"/>
<path d="M206.724 104.547L205.633 101.904H204.116L206.002 105.802V107.982H207.44V105.802L209.333 101.904H207.801L206.724 104.547Z" fill="black"/>
<path d="M214.629 102.188C214.239 101.941 213.791 101.822 213.292 101.822C212.786 101.822 212.338 101.949 211.948 102.195C211.558 102.441 211.254 102.792 211.038 103.248C210.828 103.703 210.72 104.226 210.72 104.823V105.167C210.727 105.742 210.843 106.25 211.059 106.69C211.276 107.131 211.58 107.474 211.97 107.713C212.36 107.952 212.801 108.072 213.299 108.072C213.798 108.072 214.246 107.945 214.636 107.706C215.026 107.459 215.33 107.108 215.546 106.653C215.756 106.197 215.864 105.675 215.864 105.077V104.801C215.864 104.219 215.749 103.696 215.532 103.248C215.322 102.785 215.019 102.434 214.629 102.188ZM214.426 105.092C214.426 105.682 214.325 106.138 214.13 106.451C213.935 106.765 213.661 106.922 213.299 106.922C212.924 106.922 212.635 106.765 212.447 106.444C212.259 106.123 212.158 105.667 212.158 105.07L212.165 104.622C212.208 103.517 212.584 102.972 213.292 102.972C213.653 102.972 213.935 103.128 214.13 103.442C214.325 103.756 214.426 104.211 214.426 104.816V105.092Z" fill="black"/>
<path d="M221.038 105.876C221.038 106.25 220.965 106.526 220.814 106.69C220.662 106.854 220.438 106.944 220.149 106.944C219.564 106.944 219.267 106.608 219.253 105.943V101.904H217.83V105.914C217.837 106.578 218.046 107.108 218.458 107.489C218.87 107.87 219.434 108.064 220.149 108.064C220.626 108.064 221.03 107.975 221.384 107.803C221.738 107.631 221.999 107.377 222.186 107.049C222.374 106.72 222.468 106.332 222.468 105.876V101.896H221.052V105.876H221.038Z" fill="black"/>
<path d="M228.87 104.794C229.036 104.517 229.116 104.166 229.116 103.741C229.116 103.158 228.92 102.703 228.523 102.389C228.133 102.068 227.584 101.911 226.89 101.911H224.578V107.989H225.994V105.839H226.76L227.8 107.989H229.318V107.93L228.09 105.473C228.444 105.294 228.704 105.07 228.87 104.794ZM227.497 104.487C227.36 104.637 227.157 104.704 226.89 104.704H225.994V103.031H226.89C227.157 103.031 227.36 103.106 227.497 103.255C227.634 103.405 227.707 103.614 227.707 103.875C227.707 104.136 227.634 104.338 227.497 104.487Z" fill="black"/>
<path d="M238.256 102.188C237.865 101.941 237.417 101.822 236.926 101.822C236.42 101.822 235.972 101.949 235.582 102.195C235.185 102.441 234.881 102.792 234.672 103.248C234.462 103.703 234.354 104.226 234.354 104.823V105.167C234.368 105.742 234.477 106.25 234.693 106.69C234.91 107.131 235.214 107.474 235.597 107.713C235.987 107.952 236.428 108.072 236.926 108.072C237.425 108.072 237.873 107.945 238.263 107.706C238.653 107.459 238.956 107.108 239.166 106.653C239.375 106.197 239.484 105.675 239.484 105.077V104.801C239.484 104.219 239.368 103.696 239.151 103.248C238.949 102.785 238.646 102.434 238.256 102.188ZM238.053 105.092C238.053 105.682 237.952 106.138 237.757 106.451C237.562 106.765 237.287 106.922 236.926 106.922C236.55 106.922 236.261 106.765 236.074 106.444C235.886 106.123 235.784 105.667 235.784 105.07L235.792 104.622C235.835 103.517 236.211 102.972 236.919 102.972C237.28 102.972 237.562 103.128 237.757 103.442C237.952 103.756 238.053 104.211 238.053 104.816V105.092Z" fill="black"/>
<path d="M244.968 105.69L242.887 101.904H241.471V107.982H242.887V104.204L244.968 107.982H246.377V101.904H244.968V105.69Z" fill="black"/>
<path d="M249.939 101.904H248.516V107.982H252.403V106.854H249.939V101.904Z" fill="black"/>
<path d="M255.755 101.904H254.339V107.982H255.755V101.904Z" fill="black"/>
<path d="M261.478 105.69L259.397 101.904H257.981V107.982H259.397V104.204L261.478 107.982H262.894V101.904H261.478V105.69Z" fill="black"/>
<path d="M265.025 107.982H269.079V106.854H266.449V105.406H268.674V104.316H266.449V103.039H269.086V101.904H265.025V107.982Z" fill="black"/>
<path d="M277.706 104.316H275.618V101.904H274.202V107.982H275.618V105.443H277.706V107.982H279.115V101.904H277.706V104.316Z" fill="black"/>
<path d="M284.996 102.188C284.606 101.941 284.158 101.822 283.667 101.822C283.161 101.822 282.713 101.949 282.323 102.195C281.926 102.441 281.622 102.792 281.413 103.248C281.203 103.703 281.095 104.226 281.095 104.823V105.167C281.109 105.742 281.217 106.25 281.434 106.69C281.651 107.131 281.954 107.474 282.337 107.713C282.728 107.952 283.168 108.072 283.667 108.072C284.165 108.072 284.613 107.945 285.004 107.706C285.394 107.459 285.697 107.108 285.907 106.653C286.116 106.197 286.225 105.675 286.225 105.077V104.801C286.225 104.219 286.109 103.696 285.892 103.248C285.69 102.785 285.386 102.434 284.996 102.188ZM284.794 105.092C284.794 105.682 284.693 106.138 284.498 106.451C284.303 106.765 284.028 106.922 283.667 106.922C283.291 106.922 283.002 106.765 282.814 106.444C282.626 106.123 282.525 105.667 282.525 105.07L282.532 104.622C282.576 103.517 282.952 102.972 283.66 102.972C284.021 102.972 284.303 103.128 284.498 103.442C284.693 103.756 284.794 104.211 284.794 104.816V105.092Z" fill="black"/>
<path d="M290.43 102.927C290.683 102.927 290.878 102.994 291.022 103.128C291.167 103.263 291.239 103.457 291.239 103.703H292.655C292.655 103.33 292.561 103.001 292.373 102.718C292.185 102.434 291.925 102.21 291.593 102.053C291.261 101.896 290.878 101.822 290.459 101.822C290.025 101.822 289.635 101.896 289.288 102.038C288.941 102.18 288.674 102.382 288.479 102.636C288.284 102.889 288.197 103.188 288.197 103.524C288.197 104.204 288.58 104.734 289.339 105.122C289.57 105.242 289.873 105.369 290.242 105.495C290.61 105.622 290.87 105.749 291.015 105.869C291.159 105.988 291.232 106.153 291.232 106.369C291.232 106.556 291.167 106.705 291.029 106.81C290.892 106.914 290.712 106.966 290.473 106.966C290.105 106.966 289.845 106.892 289.678 106.735C289.512 106.578 289.433 106.339 289.433 106.018H288.009C288.009 106.421 288.11 106.772 288.305 107.078C288.501 107.385 288.79 107.631 289.18 107.803C289.57 107.982 289.996 108.064 290.473 108.064C291.152 108.064 291.68 107.915 292.07 107.609C292.46 107.302 292.655 106.884 292.655 106.354C292.655 105.69 292.337 105.167 291.701 104.786C291.441 104.629 291.109 104.487 290.697 104.353C290.292 104.219 290.003 104.084 289.844 103.957C289.686 103.83 289.599 103.688 289.599 103.532C289.599 103.352 289.671 103.203 289.816 103.091C289.975 102.986 290.177 102.927 290.43 102.927Z" fill="black"/>
<path d="M298.168 102.165C297.821 101.993 297.424 101.911 296.976 101.911H294.628V107.989H296.044V105.929H296.947C297.662 105.929 298.226 105.749 298.638 105.398C299.05 105.04 299.252 104.57 299.252 103.98C299.252 103.576 299.158 103.218 298.97 102.904C298.782 102.591 298.508 102.337 298.168 102.165ZM297.597 104.577C297.453 104.719 297.243 104.794 296.969 104.794H296.037V103.039H296.983C297.236 103.039 297.438 103.128 297.59 103.3C297.742 103.472 297.814 103.696 297.814 103.98C297.814 104.234 297.742 104.435 297.597 104.577Z" fill="black"/>
<path d="M302.763 101.904H301.347V107.982H302.763V101.904Z" fill="black"/>
<path d="M304.57 103.039H306.304V107.982H307.72V103.039H309.49V101.904H304.57V103.039Z" fill="black"/>
<path d="M312.539 101.904L310.379 107.982H311.896L312.236 106.847H314.179L314.519 107.982H316.044L313.869 101.904H312.539ZM312.575 105.719L313.204 103.614L313.84 105.719H312.575Z" fill="black"/>
<path d="M319.136 101.904H317.72V107.982H321.6V106.854H319.136V101.904Z" fill="black"/>
</svg>
