<svg width="75" height="75" viewBox="0 0 75 75" fill="none" xmlns="http://www.w3.org/2000/svg">
<g clip-path="url(#clip0_7_791)">
<path d="M73.6073 37.5155C73.6073 48.473 68.7166 58.3161 61.0093 64.9092C54.6948 70.326 46.4612 73.6071 37.4847 73.6071C28.5082 73.6071 20.3056 70.326 13.9911 64.9092C6.2837 58.2852 1.39307 48.473 1.39307 37.5155C1.39307 17.5505 17.5507 1.39288 37.5156 1.39288C57.4496 1.39288 73.6073 17.5505 73.6073 37.5155Z" stroke="#005DAA" stroke-width="3"/>
<path d="M37.5156 34.5749C44.2168 34.5749 49.6493 29.1425 49.6493 22.4412C49.6493 15.7399 44.2168 10.3075 37.5156 10.3075C30.8143 10.3075 25.3818 15.7399 25.3818 22.4412C25.3818 29.1425 30.8143 34.5749 37.5156 34.5749Z" fill="#005DAA"/>
<path d="M61.0089 60.421V64.9092C54.6944 70.3261 46.4608 73.6071 37.4843 73.6071C28.5078 73.6071 20.3052 70.3261 13.9907 64.9092V60.421C13.9907 47.4206 24.5149 36.8964 37.4843 36.8964C43.9845 36.8964 49.8657 39.5275 54.1063 43.7681C58.3469 48.0087 61.0089 53.9208 61.0089 60.421Z" fill="#005DAA"/>
</g>
<defs>
<clipPath id="clip0_7_791">
<rect width="75" height="75" fill="white"/>
</clipPath>
</defs>
</svg>
