<svg xmlns="http://www.w3.org/2000/svg" viewBox="0 0 458.11 173.27"><defs><style>.cls-1{fill:#01b0af;}.cls-2{fill:#fff;}</style></defs><g id="Layer_2" data-name="Layer 2"><g id="Layer_1-2" data-name="Layer 1"><rect class="cls-1" width="458.11" height="173.27"/><rect class="cls-2" x="201.16" y="102.63" width="244.29" height="20.88"/><polygon class="cls-2" points="445.45 67.47 445.45 88.34 263.73 88.34 256.02 67.47 445.45 67.47"/><polygon class="cls-2" points="445.45 32.3 445.45 53.18 250.74 53.18 243.02 32.3 445.45 32.3"/><path class="cls-2" d="M64.26,104.79H49.63v39.67h-27V32.3H66.73q20,0,31.2,8.85t11.25,25q0,11.7-4.74,19.39T89.61,98L113,143.31v1.15h-29ZM49.63,84h17.1q7.69,0,11.59-4t3.89-11.32q0-7.26-3.92-11.39T66.73,53.1H49.63Z"/><path class="cls-2" d="M154.32,144.46h-27V32.3h27Z"/><path class="cls-2" d="M238.22,123.51H201.16l-6.47,21H165.8L206.94,32.3h25.42l41.45,112.16H244.76Zm-30.59-20.88h24.11l-12.09-38.9Z"/><path class="cls-2" d="M286.11,140l1.5-3.54h2.11l-2.62,5.22v2.92h-2v-2.92l-2.61-5.22h2.1Z"/><path class="cls-2" d="M298.76,140.71a4.74,4.74,0,0,1-.44,2.11,3.24,3.24,0,0,1-1.25,1.41,3.49,3.49,0,0,1-1.85.5,3.54,3.54,0,0,1-1.85-.48,3.26,3.26,0,0,1-1.25-1.37,4.72,4.72,0,0,1-.48-2v-.46a4.85,4.85,0,0,1,.44-2.11,3.2,3.2,0,0,1,1.26-1.41,3.72,3.72,0,0,1,3.71,0,3.36,3.36,0,0,1,1.26,1.4,4.66,4.66,0,0,1,.45,2.09Zm-2-.34a3.41,3.41,0,0,0-.41-1.84,1.29,1.29,0,0,0-1.16-.63c-1,0-1.5.74-1.56,2.21v.6a3.47,3.47,0,0,0,.4,1.84,1.38,1.38,0,0,0,2.32,0,3.38,3.38,0,0,0,.41-1.82Z"/><path class="cls-2" d="M307.88,136.47v5.33a3,3,0,0,1-.39,1.57,2.45,2.45,0,0,1-1.1,1,3.92,3.92,0,0,1-1.71.35,3.34,3.34,0,0,1-2.34-.78,2.74,2.74,0,0,1-.87-2.11v-5.37h2v5.41c0,.89.44,1.34,1.24,1.34a1.21,1.21,0,0,0,.92-.34,1.56,1.56,0,0,0,.32-1.09v-5.32Z"/><path class="cls-2" d="M313.84,141.73h-1.06v2.88h-2v-8.14H314a3.59,3.59,0,0,1,2.27.65,2.17,2.17,0,0,1,.81,1.81,2.63,2.63,0,0,1-.34,1.41,2.45,2.45,0,0,1-1.08.9l1.7,3.29v.08h-2.1Zm-1.06-1.51H314a1.07,1.07,0,0,0,.84-.29,1.14,1.14,0,0,0,.29-.82,1.16,1.16,0,0,0-.29-.83,1.1,1.1,0,0,0-.84-.3h-1.24Z"/><path class="cls-2" d="M331.47,140.71a4.88,4.88,0,0,1-.44,2.11,3.33,3.33,0,0,1-1.26,1.41,3.49,3.49,0,0,1-1.85.5,3.54,3.54,0,0,1-1.85-.48,3.32,3.32,0,0,1-1.25-1.37,4.58,4.58,0,0,1-.47-2v-.46a4.85,4.85,0,0,1,.43-2.11,3.33,3.33,0,0,1,1.26-1.41,3.72,3.72,0,0,1,3.71,0,3.36,3.36,0,0,1,1.26,1.4,4.8,4.8,0,0,1,.46,2.09Zm-2-.34a3.42,3.42,0,0,0-.4-1.84,1.3,1.3,0,0,0-1.16-.63c-1,0-1.51.74-1.56,2.21v.6a3.47,3.47,0,0,0,.4,1.84,1.29,1.29,0,0,0,1.18.64,1.27,1.27,0,0,0,1.14-.63,3.38,3.38,0,0,0,.41-1.82Z"/><path class="cls-2" d="M341,144.61H339l-2.88-5.06v5.06h-2v-8.14h2l2.88,5.07v-5.07H341Z"/><path class="cls-2" d="M345.92,143.1h3.41v1.51H344v-8.14h2Z"/><path class="cls-2" d="M354,144.61h-2v-8.14h2Z"/><path class="cls-2" d="M363.85,144.61h-2L359,139.55v5.06h-2v-8.14h2l2.88,5.07v-5.07h2Z"/><path class="cls-2" d="M371.85,141.16h-3.08v1.94h3.64v1.51H366.8v-8.14h5.62V138h-3.65v1.72h3.08Z"/><path class="cls-2" d="M386.3,144.61h-1.95v-3.4h-2.89v3.4h-2v-8.14h2v3.24h2.89v-3.24h1.95Z"/><path class="cls-2" d="M396.15,140.71a4.88,4.88,0,0,1-.44,2.11,3.24,3.24,0,0,1-1.25,1.41,3.74,3.74,0,0,1-3.7,0,3.28,3.28,0,0,1-1.26-1.37,4.58,4.58,0,0,1-.47-2v-.46a4.85,4.85,0,0,1,.44-2.11,3.2,3.2,0,0,1,1.26-1.41,3.5,3.5,0,0,1,1.86-.5,3.57,3.57,0,0,1,1.85.49,3.36,3.36,0,0,1,1.26,1.4,4.66,4.66,0,0,1,.45,2.09Zm-2-.34a3.41,3.41,0,0,0-.41-1.84,1.3,1.3,0,0,0-1.16-.63c-1,0-1.5.74-1.56,2.21v.6a3.57,3.57,0,0,0,.39,1.84,1.3,1.3,0,0,0,1.18.64,1.29,1.29,0,0,0,1.15-.63,3.48,3.48,0,0,0,.41-1.82Z"/><path class="cls-2" d="M403.08,142.45a.81.81,0,0,0-.3-.67,3.79,3.79,0,0,0-1.08-.5,10.41,10.41,0,0,1-1.25-.5,2.37,2.37,0,0,1-1.58-2.13,2,2,0,0,1,.39-1.2,2.63,2.63,0,0,1,1.12-.8,4.37,4.37,0,0,1,1.62-.29,3.89,3.89,0,0,1,1.57.31,2.49,2.49,0,0,1,1.09.9,2.35,2.35,0,0,1,.38,1.32h-2a1,1,0,0,0-.31-.77,1.15,1.15,0,0,0-.82-.28,1.3,1.3,0,0,0-.83.24.69.69,0,0,0-.31.59.71.71,0,0,0,.34.56,4,4,0,0,0,1.18.53,7.07,7.07,0,0,1,1.38.58,2.34,2.34,0,0,1,1.32,2.1,2,2,0,0,1-.8,1.68,3.65,3.65,0,0,1-2.21.61,4.3,4.3,0,0,1-1.79-.36,2.71,2.71,0,0,1-1.21-1,2.55,2.55,0,0,1-.41-1.43h2a1.24,1.24,0,0,0,.34,1,1.59,1.59,0,0,0,1.1.31,1.28,1.28,0,0,0,.77-.21A.69.69,0,0,0,403.08,142.45Z"/><path class="cls-2" d="M409.73,141.85v2.76h-2v-8.14H411a3.79,3.79,0,0,1,1.66.35,2.58,2.58,0,0,1,1.11,1,2.68,2.68,0,0,1,.39,1.44,2.35,2.35,0,0,1-.85,1.9,3.57,3.57,0,0,1-2.34.71Zm0-1.51H411a1.22,1.22,0,0,0,.87-.29,1.06,1.06,0,0,0,.3-.8,1.27,1.27,0,0,0-.31-.91A1.05,1.05,0,0,0,411,138h-1.31Z"/><path class="cls-2" d="M419,144.61h-2v-8.14h2Z"/><path class="cls-2" d="M428.34,138h-2.45v6.62h-2V138h-2.4v-1.52h6.81Z"/><path class="cls-2" d="M434.83,143.09h-2.69l-.47,1.52h-2.09l3-8.14h1.85l3,8.14h-2.11Zm-2.22-1.51h1.75l-.88-2.83Z"/><path class="cls-2" d="M441.69,143.1h3.41v1.51h-5.37v-8.14h2Z"/></g></g></svg>