<svg width="71" height="74" viewBox="0 0 71 74" fill="none" xmlns="http://www.w3.org/2000/svg">
<g clip-path="url(#clip0_10_2)">
<path d="M71 6.42557V67.5744C71 71.105 68.1173 74 64.5228 74H17.2251C13.6662 74 10.7479 71.105 10.7479 67.5744V10.6622L0 0H64.5228C68.1173 0 71 2.85973 71 6.42557Z" fill="#005DAA"/>
<path d="M63.8467 8.15551H17.9013C17.3675 8.15551 16.9404 7.73185 16.9404 7.20227C16.9404 6.67269 17.3675 6.24902 17.9013 6.24902H63.8823C64.4161 6.24902 64.8432 6.67269 64.8432 7.20227C64.8076 7.73185 64.3805 8.15551 63.8467 8.15551Z" fill="white"/>
<path d="M63.8467 14.0868H17.9013C17.3675 14.0868 16.9404 13.6631 16.9404 13.1335C16.9404 12.604 17.3675 12.1803 17.9013 12.1803H63.8823C64.4161 12.1803 64.8432 12.604 64.8432 13.1335C64.8076 13.6631 64.3805 14.0868 63.8467 14.0868Z" fill="white"/>
<path d="M63.8467 20.0534H17.9013C17.3675 20.0534 16.9404 19.6297 16.9404 19.1002C16.9404 18.5706 17.3675 18.1469 17.9013 18.1469H63.8823C64.4161 18.1469 64.8432 18.5706 64.8432 19.1002C64.8076 19.6297 64.3805 20.0534 63.8467 20.0534Z" fill="white"/>
<path d="M63.8467 26.02H17.9013C17.3675 26.02 16.9404 25.5963 16.9404 25.0668C16.9404 24.5372 17.3675 24.1135 17.9013 24.1135H63.8823C64.4161 24.1135 64.8432 24.5372 64.8432 25.0668C64.8076 25.5963 64.3805 26.02 63.8467 26.02Z" fill="white"/>
<path d="M63.8467 31.9866H17.9013C17.3675 31.9866 16.9404 31.563 16.9404 31.0334C16.9404 30.5038 17.3675 30.0801 17.9013 30.0801H63.8823C64.4161 30.0801 64.8432 30.5038 64.8432 31.0334C64.8076 31.563 64.3805 31.9866 63.8467 31.9866Z" fill="white"/>
<path d="M63.8467 37.9532H17.9013C17.3675 37.9532 16.9404 37.5296 16.9404 37C16.9404 36.4704 17.3675 36.0468 17.9013 36.0468H63.8823C64.4161 36.0468 64.8432 36.4704 64.8432 37C64.8076 37.5296 64.3805 37.9532 63.8467 37.9532Z" fill="white"/>
<path d="M63.8467 43.8845H17.9013C17.3675 43.8845 16.9404 43.4609 16.9404 42.9313C16.9404 42.4017 17.3675 41.978 17.9013 41.978H63.8823C64.4161 41.978 64.8432 42.4017 64.8432 42.9313C64.8076 43.4609 64.3805 43.8845 63.8467 43.8845Z" fill="white"/>
<path d="M63.8467 49.8511H17.9013C17.3675 49.8511 16.9404 49.4275 16.9404 48.8979C16.9404 48.3683 17.3675 47.9446 17.9013 47.9446H63.8823C64.4161 47.9446 64.8432 48.3683 64.8432 48.8979C64.8076 49.4275 64.3805 49.8511 63.8467 49.8511Z" fill="white"/>
<path d="M63.8467 55.8177H17.9013C17.3675 55.8177 16.9404 55.3941 16.9404 54.8645C16.9404 54.3349 17.3675 53.9113 17.9013 53.9113H63.8823C64.4161 53.9113 64.8432 54.3349 64.8432 54.8645C64.8076 55.3941 64.3805 55.8177 63.8467 55.8177Z" fill="white"/>
<path d="M63.8467 61.7844H17.9013C17.3675 61.7844 16.9404 61.3607 16.9404 60.8311C16.9404 60.3015 17.3675 59.8779 17.9013 59.8779H63.8823C64.4161 59.8779 64.8432 60.3015 64.8432 60.8311C64.8076 61.3607 64.3805 61.7844 63.8467 61.7844Z" fill="white"/>
<path d="M63.8467 67.7509H17.9013C17.3675 67.7509 16.9404 67.3272 16.9404 66.7977C16.9404 66.2681 17.3675 65.8444 17.9013 65.8444H63.8823C64.4161 65.8444 64.8432 66.2681 64.8432 66.7977C64.8076 67.3272 64.3805 67.7509 63.8467 67.7509Z" fill="white"/>
</g>
<defs>
<clipPath id="clip0_10_2">
<rect width="71" height="74" fill="white"/>
</clipPath>
</defs>
</svg>
