<svg xmlns="http://www.w3.org/2000/svg" viewBox="0 0 109.81 134.67"><defs><style>.cls-1{fill:#fff;}</style></defs><g id="Layer_2" data-name="Layer 2"><g id="Layer_1-2" data-name="Layer 1"><path class="cls-1" d="M87.12,94.19V46.81a4.87,4.87,0,0,0-4.88-4.88H77.07V39.85a4.24,4.24,0,0,0-4.24-4.24H70.1a4.24,4.24,0,0,0-4.24,4.24v2.08H44V39.85a4.24,4.24,0,0,0-4.25-4.24H37a4.25,4.25,0,0,0-4.25,4.24v2.08H27.56a4.88,4.88,0,0,0-4.88,4.88V94.19a4.88,4.88,0,0,0,4.88,4.87H82.24A4.87,4.87,0,0,0,87.12,94.19ZM26,92.79V55.65H83.77V92.79Z"/><rect class="cls-1" x="32.73" y="61.26" width="11.22" height="11.22" rx="2.2"/><path class="cls-1" d="M58.31,61.26H51.5a2.21,2.21,0,0,0-2.21,2.2v6.82a2.21,2.21,0,0,0,2.21,2.2h6.81a2.2,2.2,0,0,0,2.2-2.2V63.46A2.2,2.2,0,0,0,58.31,61.26Z"/><path class="cls-1" d="M74.87,61.26H68.06a2.2,2.2,0,0,0-2.2,2.2v6.82a2.2,2.2,0,0,0,2.2,2.2h6.81a2.21,2.21,0,0,0,2.21-2.2V63.46A2.21,2.21,0,0,0,74.87,61.26Z"/><rect class="cls-1" x="32.73" y="77.03" width="11.22" height="11.22" rx="2.2"/><path class="cls-1" d="M58.31,77H51.5a2.2,2.2,0,0,0-2.21,2.2V86a2.2,2.2,0,0,0,2.21,2.2h6.81a2.19,2.19,0,0,0,2.2-2.2V79.23A2.19,2.19,0,0,0,58.31,77Z"/><path class="cls-1" d="M52.64,15.6,44.35,26.37a2,2,0,0,0,.37,2.84,2,2,0,0,0,1.23.42,2,2,0,0,0,1.61-.79L57.93,15.37l1.45-1.87.53-.69-.69-.53-1.86-1.43L43.82.42a2,2,0,0,0-2.47,3.21l9.89,7.62A58.46,58.46,0,0,0,15.86,29,58.09,58.09,0,0,0,3.8,48.12,57.16,57.16,0,0,0,0,70.14,56.62,56.62,0,0,1,4.9,48.57a55.81,55.81,0,0,1,31-29.42A55.11,55.11,0,0,1,52.64,15.6Z"/><path class="cls-1" d="M109.79,64.53A56.37,56.37,0,0,1,92.27,104,55.87,55.87,0,0,1,74,115.52a55.11,55.11,0,0,1-16.79,3.55l8.29-10.77a2,2,0,0,0-.36-2.84,2.06,2.06,0,0,0-1.24-.42,2,2,0,0,0-1.61.79L51.88,119.3l-1.46,1.88-.52.69.69.52,1.85,1.44L66,134.25a2,2,0,0,0,2.47-3.2l-9.9-7.62a58.5,58.5,0,0,0,35.38-17.79A58,58,0,0,0,106,86.56,57.38,57.38,0,0,0,109.79,64.53Z"/></g></g></svg>